<?xml version="1.0" standalone="no"?>
<!DOCTYPE svg PUBLIC "-//W3C//DTD SVG 20010904//EN"
 "http://www.w3.org/TR/2001/REC-SVG-20010904/DTD/svg10.dtd">
<svg version="1.0" xmlns="http://www.w3.org/2000/svg"
 width="1304.000000pt" height="1304.000000pt" viewBox="0 0 1304.000000 1304.000000"
 preserveAspectRatio="xMidYMid meet">
<metadata>
Created by potrace 1.14, written by Peter Selinger 2001-2017
</metadata>
<g transform="translate(0.000000,1304.000000) scale(0.100000,-0.100000)"
fill="#000000" stroke="none">
<path d="M10 8566 l0 -783 293 -292 292 -292 1 -161 c1 -155 2 -161 25 -183
13 -12 167 -166 341 -342 l317 -319 158 1 158 1 835 -836 c856 -856 871 -871
1012 -992 46 -38 94 -80 108 -92 14 -12 40 -33 59 -46 19 -14 42 -32 52 -40
29 -25 40 -33 129 -95 134 -95 155 -108 331 -209 114 -66 338 -150 479 -181
220 -48 457 -17 560 74 l34 29 19 -21 c18 -22 23 -22 335 -23 175 0 322 1 327
3 7 2 10 127 10 362 0 237 3 357 10 353 6 -3 86 -57 178 -120 221 -149 404
-259 592 -356 22 -12 42 -24 43 -28 2 -5 9 -8 16 -8 7 0 34 -11 59 -24 40 -22
104 -51 227 -103 63 -27 142 -58 150 -58 3 0 10 -3 15 -6 6 -4 24 -10 40 -14
45 -12 45 -12 48 -15 1 -1 9 -3 17 -5 8 -2 40 -11 70 -20 30 -8 72 -17 92 -20
20 -3 47 -9 60 -14 38 -14 337 -12 393 3 112 29 210 103 260 194 11 21 23 39
26 42 19 17 76 236 80 308 2 23 6 42 9 42 4 0 46 -29 93 -65 48 -36 91 -65 96
-65 5 0 11 -4 13 -8 8 -22 269 -180 433 -264 103 -52 278 -126 318 -133 9 -2
22 -7 27 -10 11 -7 12 -7 135 -34 116 -25 314 -27 382 -4 101 35 195 130 233
236 l10 28 62 -48 c115 -89 213 -153 225 -149 7 3 15 1 18 -4 3 -5 15 -6 28
-1 13 5 30 5 38 1 8 -5 21 -5 29 0 7 4 24 4 36 0 14 -6 26 -5 29 0 3 5 12 7
19 4 22 -8 116 -10 116 -2 0 4 6 5 13 2 20 -7 127 -10 127 -3 0 4 15 4 33 0
17 -4 43 -5 57 -1 l25 6 3 162 c1 89 5 162 8 162 3 0 16 -8 29 -18 41 -31 163
-110 221 -143 110 -61 228 -119 304 -148 47 -18 94 -37 105 -42 11 -5 32 -11
47 -13 15 -3 31 -7 36 -10 35 -22 199 -38 336 -33 120 3 149 8 196 28 95 41
50 1 643 585 130 128 237 237 237 240 0 4 -120 128 -267 276 -148 148 -516
519 -818 824 l-551 555 -44 -34 c-110 -82 -160 -95 -260 -69 -157 41 -293 146
-647 503 -645 650 -745 754 -748 773 -2 12 -7 75 -10 141 -4 66 -8 140 -10
165 -1 25 -3 73 -4 107 l-1 62 -340 343 -341 343 -233 1 -233 1 -411 411 -411
412 -298 0 -298 0 1 -417 c0 -230 -1 -421 -3 -425 -2 -3 -18 -2 -36 3 -17 6
-39 12 -47 14 -8 3 -40 12 -70 21 -49 14 -75 20 -160 39 -72 15 -247 31 -328
29 -192 -4 -288 -38 -383 -136 -95 -98 -170 -316 -173 -505 -1 -18 -2 -33 -4
-33 -6 0 -46 23 -56 32 -30 26 -244 162 -339 215 -31 18 -88 50 -125 71 -37
22 -130 70 -207 106 -77 37 -153 75 -170 84 -16 9 -31 15 -33 13 -4 -4 -95 31
-107 41 -5 4 -19 8 -30 8 -12 0 -25 3 -29 8 -4 4 -12 8 -17 8 -5 1 -10 2 -11
4 -2 1 -10 3 -18 5 -8 3 -57 15 -108 29 -50 13 -113 27 -139 31 -26 3 -51 8
-55 11 -10 6 -254 7 -278 1 -8 -2 -31 -7 -50 -11 -109 -25 -231 -130 -288
-249 -31 -65 -68 -175 -64 -189 6 -23 -23 0 -79 64 -35 40 -84 95 -109 123
-25 28 -70 79 -100 114 -30 35 -62 72 -71 83 -22 25 -100 48 -209 64 -211 29
-337 -24 -414 -174 l-18 -34 -64 64 -64 63 -295 1 c-292 1 -295 0 -296 -20 -1
-12 -1 -25 1 -31 1 -5 3 -36 5 -68 5 -69 10 -71 -101 43 l-73 75 -236 1 -235
1 -408 412 -407 411 -297 0 -298 0 0 -784z"/>
</g>
</svg>
