<svg width="14" height="14" viewBox="0 0 14 14" fill="none" xmlns="http://www.w3.org/2000/svg">
<path fill-rule="evenodd" clip-rule="evenodd" d="M1.16699 3.50033C1.16699 3.17816 1.42816 2.91699 1.75033 2.91699H12.2503C12.5725 2.91699 12.8337 3.17816 12.8337 3.50033C12.8337 3.82249 12.5725 4.08366 12.2503 4.08366H1.75033C1.42816 4.08366 1.16699 3.82249 1.16699 3.50033Z" fill="black"/>
<path fill-rule="evenodd" clip-rule="evenodd" d="M5.83301 1.74967C5.6783 1.74967 5.52993 1.81113 5.42053 1.92053C5.31113 2.02993 5.24967 2.1783 5.24967 2.33301V2.91634H8.74967V2.33301C8.74967 2.1783 8.68822 2.02993 8.57882 1.92053C8.46942 1.81113 8.32105 1.74967 8.16634 1.74967H5.83301ZM9.91634 2.91634V2.33301C9.91634 1.86888 9.73197 1.42376 9.40378 1.09557C9.07559 0.767382 8.63047 0.583008 8.16634 0.583008H5.83301C5.36888 0.583008 4.92376 0.767382 4.59557 1.09557C4.26738 1.42376 4.08301 1.86888 4.08301 2.33301V2.91634H2.91634C2.59418 2.91634 2.33301 3.17751 2.33301 3.49967V11.6663C2.33301 12.1305 2.51738 12.5756 2.84557 12.9038C3.17376 13.232 3.61888 13.4163 4.08301 13.4163H9.91634C10.3805 13.4163 10.8256 13.232 11.1538 12.9038C11.482 12.5756 11.6663 12.1305 11.6663 11.6663V3.49967C11.6663 3.17751 11.4052 2.91634 11.083 2.91634H9.91634ZM3.49967 4.08301V11.6663C3.49967 11.8211 3.56113 11.9694 3.67053 12.0788C3.77993 12.1882 3.9283 12.2497 4.08301 12.2497H9.91634C10.0711 12.2497 10.2194 12.1882 10.3288 12.0788C10.4382 11.9694 10.4997 11.8211 10.4997 11.6663V4.08301H3.49967Z" fill="black"/>
<path fill-rule="evenodd" clip-rule="evenodd" d="M5.83333 5.83301C6.1555 5.83301 6.41667 6.09418 6.41667 6.41634V9.91634C6.41667 10.2385 6.1555 10.4997 5.83333 10.4997C5.51117 10.4997 5.25 10.2385 5.25 9.91634V6.41634C5.25 6.09418 5.51117 5.83301 5.83333 5.83301Z" fill="black"/>
<path fill-rule="evenodd" clip-rule="evenodd" d="M8.16634 5.83301C8.48851 5.83301 8.74967 6.09418 8.74967 6.41634V9.91634C8.74967 10.2385 8.48851 10.4997 8.16634 10.4997C7.84417 10.4997 7.58301 10.2385 7.58301 9.91634V6.41634C7.58301 6.09418 7.84417 5.83301 8.16634 5.83301Z" fill="black"/>
</svg>
