<svg width="14" height="14" viewBox="0 0 14 14" fill="none" xmlns="http://www.w3.org/2000/svg">
<g clip-path="url(#clip0_127_1489)">
<path fill-rule="evenodd" clip-rule="evenodd" d="M6.41699 5.83366C6.09483 5.83366 5.83366 6.09483 5.83366 6.41699V11.667C5.83366 11.9892 6.09483 12.2503 6.41699 12.2503H11.667C11.9892 12.2503 12.2503 11.9892 12.2503 11.667V6.41699C12.2503 6.09483 11.9892 5.83366 11.667 5.83366H6.41699ZM4.66699 6.41699C4.66699 5.45049 5.45049 4.66699 6.41699 4.66699H11.667C12.6335 4.66699 13.417 5.45049 13.417 6.41699V11.667C13.417 12.6335 12.6335 13.417 11.667 13.417H6.41699C5.45049 13.417 4.66699 12.6335 4.66699 11.667V6.41699Z" fill="black"/>
<path fill-rule="evenodd" clip-rule="evenodd" d="M2.33301 1.74967C2.1783 1.74967 2.02992 1.81113 1.92053 1.92053C1.81113 2.02992 1.74967 2.1783 1.74967 2.33301V7.58301C1.74967 7.73772 1.81113 7.88609 1.92053 7.99549C2.02993 8.10488 2.1783 8.16634 2.33301 8.16634H2.91634C3.23851 8.16634 3.49967 8.42751 3.49967 8.74967C3.49967 9.07184 3.23851 9.33301 2.91634 9.33301H2.33301C1.86888 9.33301 1.42376 9.14863 1.09557 8.82044C0.767382 8.49226 0.583008 8.04714 0.583008 7.58301V2.33301C0.583008 1.86888 0.767382 1.42376 1.09557 1.09557C1.42376 0.767382 1.86888 0.583008 2.33301 0.583008H7.58301C8.04714 0.583008 8.49226 0.767382 8.82044 1.09557C9.14863 1.42376 9.33301 1.86888 9.33301 2.33301V2.91634C9.33301 3.23851 9.07184 3.49967 8.74967 3.49967C8.42751 3.49967 8.16634 3.23851 8.16634 2.91634V2.33301C8.16634 2.1783 8.10488 2.02993 7.99549 1.92053C7.88609 1.81113 7.73772 1.74967 7.58301 1.74967H2.33301Z" fill="black"/>
</g>
<defs>
<clipPath id="clip0_127_1489">
<rect width="14" height="14" fill="white"/>
</clipPath>
</defs>
</svg>
