<svg width="12" height="12" viewBox="0 0 12 12" fill="none" xmlns="http://www.w3.org/2000/svg">
<path fill-rule="evenodd" clip-rule="evenodd" d="M5 3.5C5 3.22386 5.22386 3 5.5 3H10C10.2761 3 10.5 3.22386 10.5 3.5C10.5 3.77614 10.2761 4 10 4H5.5C5.22386 4 5 3.77614 5 3.5Z" fill="black"/>
<path fill-rule="evenodd" clip-rule="evenodd" d="M2 8.5C2 8.22386 2.22386 8 2.5 8H7C7.27614 8 7.5 8.22386 7.5 8.5C7.5 8.77614 7.27614 9 7 9H2.5C2.22386 9 2 8.77614 2 8.5Z" fill="black"/>
<path fill-rule="evenodd" clip-rule="evenodd" d="M8.5 7.5C7.94772 7.5 7.5 7.94772 7.5 8.5C7.5 9.05228 7.94772 9.5 8.5 9.5C9.05228 9.5 9.5 9.05228 9.5 8.5C9.5 7.94772 9.05228 7.5 8.5 7.5ZM6.5 8.5C6.5 7.39543 7.39543 6.5 8.5 6.5C9.60457 6.5 10.5 7.39543 10.5 8.5C10.5 9.60457 9.60457 10.5 8.5 10.5C7.39543 10.5 6.5 9.60457 6.5 8.5Z" fill="black"/>
<path fill-rule="evenodd" clip-rule="evenodd" d="M3.5 2.5C2.94772 2.5 2.5 2.94772 2.5 3.5C2.5 4.05228 2.94772 4.5 3.5 4.5C4.05228 4.5 4.5 4.05228 4.5 3.5C4.5 2.94772 4.05228 2.5 3.5 2.5ZM1.5 3.5C1.5 2.39543 2.39543 1.5 3.5 1.5C4.60457 1.5 5.5 2.39543 5.5 3.5C5.5 4.60457 4.60457 5.5 3.5 5.5C2.39543 5.5 1.5 4.60457 1.5 3.5Z" fill="black"/>
</svg>
