<svg width="16" height="16" viewBox="0 0 16 16" fill="none" xmlns="http://www.w3.org/2000/svg">
<path fill-rule="evenodd" clip-rule="evenodd" d="M7.99992 2.66675C8.36811 2.66675 8.66659 2.96522 8.66659 3.33341V12.6667C8.66659 13.0349 8.36811 13.3334 7.99992 13.3334C7.63173 13.3334 7.33325 13.0349 7.33325 12.6667V3.33341C7.33325 2.96522 7.63173 2.66675 7.99992 2.66675Z" fill="black"/>
<path fill-rule="evenodd" clip-rule="evenodd" d="M7.52868 2.86201C7.78903 2.60166 8.21114 2.60166 8.47149 2.86201L13.1382 7.52868C13.3985 7.78903 13.3985 8.21114 13.1382 8.47149C12.8778 8.73184 12.4557 8.73184 12.1953 8.47149L8.00008 4.27622L3.80482 8.47149C3.54447 8.73184 3.12236 8.73184 2.86201 8.47149C2.60166 8.21114 2.60166 7.78903 2.86201 7.52868L7.52868 2.86201Z" fill="black"/>
</svg>
