<svg width="16" height="16" viewBox="0 0 16 16" fill="none" xmlns="http://www.w3.org/2000/svg">
<path fill-rule="evenodd" clip-rule="evenodd" d="M8.00008 13.3333C7.63189 13.3333 7.33341 13.0348 7.33341 12.6666L7.33342 3.33325C7.33342 2.96506 7.63189 2.66659 8.00008 2.66659C8.36827 2.66659 8.66675 2.96506 8.66675 3.33325L8.66675 12.6666C8.66675 13.0348 8.36827 13.3333 8.00008 13.3333Z" fill="black"/>
<path fill-rule="evenodd" clip-rule="evenodd" d="M8.47132 13.138C8.21097 13.3983 7.78886 13.3983 7.52851 13.138L2.86185 8.47132C2.6015 8.21097 2.6015 7.78886 2.86185 7.52851C3.1222 7.26816 3.54431 7.26816 3.80466 7.52851L7.99992 11.7238L12.1952 7.52851C12.4555 7.26816 12.8776 7.26816 13.138 7.52851C13.3983 7.78886 13.3983 8.21097 13.138 8.47132L8.47132 13.138Z" fill="black"/>
</svg>
