<svg width="17" height="17" viewBox="0 0 17 17" fill="none" xmlns="http://www.w3.org/2000/svg">
<path fill-rule="evenodd" clip-rule="evenodd" d="M7.79175 2.83317C5.05334 2.83317 2.83341 5.05309 2.83341 7.7915C2.83341 10.5299 5.05334 12.7498 7.79175 12.7498C10.5302 12.7498 12.7501 10.5299 12.7501 7.7915C12.7501 5.05309 10.5302 2.83317 7.79175 2.83317ZM1.41675 7.7915C1.41675 4.27069 4.27093 1.4165 7.79175 1.4165C11.3126 1.4165 14.1667 4.27069 14.1667 7.7915C14.1667 11.3123 11.3126 14.1665 7.79175 14.1665C4.27093 14.1665 1.41675 11.3123 1.41675 7.7915Z" fill="#889298"/>
<path fill-rule="evenodd" clip-rule="evenodd" d="M11.2929 11.2929C11.5695 11.0163 12.018 11.0163 12.2946 11.2929L15.3759 14.3742C15.6525 14.6508 15.6525 15.0993 15.3759 15.3759C15.0993 15.6525 14.6508 15.6525 14.3742 15.3759L11.2929 12.2946C11.0163 12.018 11.0163 11.5695 11.2929 11.2929Z" fill="#889298"/>
</svg>
