<svg width="13" height="13" viewBox="0 0 13 13" fill="none" xmlns="http://www.w3.org/2000/svg">
<path fill-rule="evenodd" clip-rule="evenodd" d="M1.0835 1.62467C1.0835 1.32552 1.32601 1.08301 1.62516 1.08301H11.3752C11.6743 1.08301 11.9168 1.32552 11.9168 1.62467V5.41634C11.9168 5.7155 11.6743 5.95801 11.3752 5.95801H1.62516C1.32601 5.95801 1.0835 5.7155 1.0835 5.41634V1.62467ZM2.16683 2.16634V4.87467H10.8335V2.16634H2.16683Z" fill="black"/>
<path fill-rule="evenodd" clip-rule="evenodd" d="M8.125 7.58366C8.125 7.2845 8.36751 7.04199 8.66667 7.04199H11.375C11.6742 7.04199 11.9167 7.2845 11.9167 7.58366V11.3753C11.9167 11.6745 11.6742 11.917 11.375 11.917H8.66667C8.36751 11.917 8.125 11.6745 8.125 11.3753V7.58366ZM9.20833 8.12533V10.8337H10.8333V8.12533H9.20833Z" fill="black"/>
<path fill-rule="evenodd" clip-rule="evenodd" d="M1.0835 7.58366C1.0835 7.2845 1.32601 7.04199 1.62516 7.04199H6.50016C6.79932 7.04199 7.04183 7.2845 7.04183 7.58366V11.3753C7.04183 11.6745 6.79932 11.917 6.50016 11.917H1.62516C1.32601 11.917 1.0835 11.6745 1.0835 11.3753V7.58366ZM2.16683 8.12533V10.8337H5.9585V8.12533H2.16683Z" fill="black"/>
</svg>
