<svg width="14" height="14" viewBox="0 0 14 14" fill="none" xmlns="http://www.w3.org/2000/svg">
<g clip-path="url(#clip0_171_3660)">
<path fill-rule="evenodd" clip-rule="evenodd" d="M1.09606 1.09557C1.42425 0.767382 1.86937 0.583008 2.3335 0.583008H9.91683C10.381 0.583008 10.8261 0.767382 11.1543 1.09557C11.4825 1.42376 11.6668 1.86888 11.6668 2.33301V6.41634C11.6668 6.73851 11.4057 6.99967 11.0835 6.99967C10.7613 6.99967 10.5002 6.73851 10.5002 6.41634V2.33301C10.5002 2.1783 10.4387 2.02993 10.3293 1.92053C10.2199 1.81113 10.0715 1.74967 9.91683 1.74967H2.3335C2.17879 1.74967 2.03041 1.81113 1.92102 1.92053C1.81162 2.02992 1.75016 2.1783 1.75016 2.33301V9.91634C1.75016 10.0711 1.81162 10.2194 1.92102 10.3288C2.03041 10.4382 2.17879 10.4997 2.3335 10.4997H6.41683C6.739 10.4997 7.00016 10.7608 7.00016 11.083C7.00016 11.4052 6.739 11.6663 6.41683 11.6663H2.3335C1.86937 11.6663 1.42425 11.482 1.09606 11.1538C0.767871 10.8256 0.583496 10.3805 0.583496 9.91634V2.33301C0.583496 1.86888 0.76787 1.42376 1.09606 1.09557Z" fill="black"/>
<path fill-rule="evenodd" clip-rule="evenodd" d="M6.58738 6.58786C6.75451 6.42073 7.00599 6.37097 7.22418 6.46187L13.0575 8.89204C13.2815 8.98535 13.4244 9.2076 13.4162 9.45013C13.408 9.69265 13.2506 9.9048 13.0208 9.98285L10.7532 10.7531L9.98233 13.0214C9.90426 13.2511 9.69211 13.4085 9.4496 13.4167C9.20709 13.4248 8.98486 13.282 8.89155 13.058L6.46138 7.22467C6.37048 7.00648 6.42024 6.755 6.58738 6.58786ZM8.08304 8.08353L9.37461 11.1838L9.74104 10.1056C9.79936 9.93396 9.93412 9.79922 10.1057 9.74092L11.183 9.37498L8.08304 8.08353Z" fill="black"/>
<path fill-rule="evenodd" clip-rule="evenodd" d="M10.0874 10.0878C10.3152 9.86004 10.6845 9.86004 10.9123 10.0878L12.6623 11.8378C12.8901 12.0657 12.8901 12.435 12.6623 12.6628C12.4345 12.8906 12.0652 12.8906 11.8374 12.6628L10.0874 10.9128C9.85955 10.685 9.85955 10.3157 10.0874 10.0878Z" fill="black"/>
</g>
<defs>
<clipPath id="clip0_171_3660">
<rect width="14" height="14" fill="white"/>
</clipPath>
</defs>
</svg>
