<svg width="13" height="12" viewBox="0 0 13 12" fill="none" xmlns="http://www.w3.org/2000/svg">
<path fill-rule="evenodd" clip-rule="evenodd" d="M4.68408 5.38514C4.68408 5.20156 4.83291 5.05273 5.01649 5.05273H7.34336C7.52695 5.05273 7.67577 5.20156 7.67577 5.38514C7.67577 5.56873 7.52695 5.71755 7.34336 5.71755H5.01649C4.83291 5.71755 4.68408 5.56873 4.68408 5.38514Z" fill="black" stroke="black" stroke-width="0.2" stroke-linecap="round" stroke-linejoin="round"/>
<path fill-rule="evenodd" clip-rule="evenodd" d="M9.0083 5.38514C9.0083 5.20156 9.15713 5.05273 9.34071 5.05273H11.6676C11.8512 5.05273 12 5.20156 12 5.38514C12 5.56873 11.8512 5.71755 11.6676 5.71755H9.34071C9.15713 5.71755 9.0083 5.56873 9.0083 5.38514Z" fill="black" stroke="black" stroke-width="0.2" stroke-linecap="round" stroke-linejoin="round"/>
<path fill-rule="evenodd" clip-rule="evenodd" d="M4.68408 6.64784C4.68408 6.46425 4.83291 6.31543 5.01649 6.31543H7.34336C7.52695 6.31543 7.67577 6.46425 7.67577 6.64784C7.67577 6.83142 7.52695 6.98025 7.34336 6.98025H5.01649C4.83291 6.98025 4.68408 6.83142 4.68408 6.64784Z" fill="black" stroke="black" stroke-width="0.2" stroke-linecap="round" stroke-linejoin="round"/>
<path fill-rule="evenodd" clip-rule="evenodd" d="M9.0083 6.64784C9.0083 6.46425 9.15713 6.31543 9.34071 6.31543H11.6676C11.8512 6.31543 12 6.46425 12 6.64784C12 6.83142 11.8512 6.98025 11.6676 6.98025H9.34071C9.15713 6.98025 9.0083 6.83142 9.0083 6.64784Z" fill="black" stroke="black" stroke-width="0.2" stroke-linecap="round" stroke-linejoin="round"/>
<path fill-rule="evenodd" clip-rule="evenodd" d="M4.68408 8.54335C4.68408 8.35976 4.83291 8.21094 5.01649 8.21094H7.34336C7.52695 8.21094 7.67577 8.35976 7.67577 8.54335C7.67577 8.72693 7.52695 8.87576 7.34336 8.87576H5.01649C4.83291 8.87576 4.68408 8.72693 4.68408 8.54335Z" fill="black" stroke="black" stroke-width="0.2" stroke-linecap="round" stroke-linejoin="round"/>
<path fill-rule="evenodd" clip-rule="evenodd" d="M9.0083 8.54335C9.0083 8.35976 9.15713 8.21094 9.34071 8.21094H11.6676C11.8512 8.21094 12 8.35976 12 8.54335C12 8.72693 11.8512 8.87576 11.6676 8.87576H9.34071C9.15713 8.87576 9.0083 8.72693 9.0083 8.54335Z" fill="black" stroke="black" stroke-width="0.2" stroke-linecap="round" stroke-linejoin="round"/>
<path fill-rule="evenodd" clip-rule="evenodd" d="M4.68408 9.97304C4.68408 9.78945 4.83291 9.64062 5.01649 9.64062H7.34336C7.52695 9.64062 7.67577 9.78945 7.67577 9.97304C7.67577 10.1566 7.52695 10.3054 7.34336 10.3054H5.01649C4.83291 10.3054 4.68408 10.1566 4.68408 9.97304Z" fill="black" stroke="black" stroke-width="0.2" stroke-linecap="round" stroke-linejoin="round"/>
<path fill-rule="evenodd" clip-rule="evenodd" d="M9.0083 9.97304C9.0083 9.78945 9.15713 9.64062 9.34071 9.64062H11.6676C11.8512 9.64062 12 9.78945 12 9.97304C12 10.1566 11.8512 10.3054 11.6676 10.3054H9.34071C9.15713 10.3054 9.0083 10.1566 9.0083 9.97304Z" fill="black" stroke="black" stroke-width="0.2" stroke-linecap="round" stroke-linejoin="round"/>
<path fill-rule="evenodd" clip-rule="evenodd" d="M4.86775 2.97322C4.6211 3.21986 4.22121 3.21986 3.97456 2.97322L2.52642 1.52507L1.07827 2.97322C0.831628 3.21986 0.431734 3.21986 0.185087 2.97322C-0.0615601 2.72657 -0.06156 2.32668 0.185087 2.08003L2.07982 0.185293C2.32647 -0.0613542 2.72637 -0.0613541 2.97301 0.185293L4.86775 2.08003C5.1144 2.32668 5.1144 2.72657 4.86775 2.97322Z" fill="black"/>
<path fill-rule="evenodd" clip-rule="evenodd" d="M2.52614 11.3682C2.17732 11.3682 1.89456 11.0854 1.89456 10.7366L1.89456 1.89448C1.89456 1.54567 2.17733 1.2629 2.52614 1.2629C2.87495 1.2629 3.15772 1.54567 3.15772 1.89448L3.15771 10.7366C3.15771 11.0854 2.87495 11.3682 2.52614 11.3682Z" fill="black"/>
</svg>
