<svg width="13" height="13" viewBox="0 0 13 13" fill="none" xmlns="http://www.w3.org/2000/svg">
<path fill-rule="evenodd" clip-rule="evenodd" d="M4.68457 2.43788C4.68457 2.25429 4.8334 2.10547 5.01698 2.10547H7.34385C7.52743 2.10547 7.67626 2.25429 7.67626 2.43788C7.67626 2.62146 7.52743 2.77029 7.34385 2.77029H5.01698C4.8334 2.77029 4.68457 2.62146 4.68457 2.43788Z" fill="black" stroke="black" stroke-width="0.2" stroke-linecap="round" stroke-linejoin="round"/>
<path fill-rule="evenodd" clip-rule="evenodd" d="M9.0083 2.43788C9.0083 2.25429 9.15713 2.10547 9.34071 2.10547H11.6676C11.8512 2.10547 12 2.25429 12 2.43788C12 2.62146 11.8512 2.77029 11.6676 2.77029H9.34071C9.15713 2.77029 9.0083 2.62146 9.0083 2.43788Z" fill="black" stroke="black" stroke-width="0.2" stroke-linecap="round" stroke-linejoin="round"/>
<path fill-rule="evenodd" clip-rule="evenodd" d="M4.68457 3.70057C4.68457 3.51699 4.8334 3.36816 5.01698 3.36816H7.34385C7.52743 3.36816 7.67626 3.51699 7.67626 3.70057C7.67626 3.88416 7.52743 4.03298 7.34385 4.03298H5.01698C4.8334 4.03298 4.68457 3.88416 4.68457 3.70057Z" fill="black" stroke="black" stroke-width="0.2" stroke-linecap="round" stroke-linejoin="round"/>
<path fill-rule="evenodd" clip-rule="evenodd" d="M9.0083 3.70057C9.0083 3.51699 9.15713 3.36816 9.34071 3.36816H11.6676C11.8512 3.36816 12 3.51699 12 3.70057C12 3.88416 11.8512 4.03298 11.6676 4.03298H9.34071C9.15713 4.03298 9.0083 3.88416 9.0083 3.70057Z" fill="black" stroke="black" stroke-width="0.2" stroke-linecap="round" stroke-linejoin="round"/>
<path fill-rule="evenodd" clip-rule="evenodd" d="M4.68457 5.5951C4.68457 5.41152 4.8334 5.2627 5.01698 5.2627H7.34385C7.52743 5.2627 7.67626 5.41152 7.67626 5.5951C7.67626 5.77869 7.52743 5.92751 7.34385 5.92751H5.01698C4.8334 5.92751 4.68457 5.77869 4.68457 5.5951Z" fill="black" stroke="black" stroke-width="0.2" stroke-linecap="round" stroke-linejoin="round"/>
<path fill-rule="evenodd" clip-rule="evenodd" d="M9.0083 5.5951C9.0083 5.41152 9.15713 5.2627 9.34071 5.2627H11.6676C11.8512 5.2627 12 5.41152 12 5.5951C12 5.77869 11.8512 5.92751 11.6676 5.92751H9.34071C9.15713 5.92751 9.0083 5.77869 9.0083 5.5951Z" fill="black" stroke="black" stroke-width="0.2" stroke-linecap="round" stroke-linejoin="round"/>
<path fill-rule="evenodd" clip-rule="evenodd" d="M4.68457 7.02479C4.68457 6.84121 4.8334 6.69238 5.01698 6.69238H7.34385C7.52743 6.69238 7.67626 6.84121 7.67626 7.02479C7.67626 7.20838 7.52743 7.3572 7.34385 7.3572H5.01698C4.8334 7.3572 4.68457 7.20838 4.68457 7.02479Z" fill="black" stroke="black" stroke-width="0.2" stroke-linecap="round" stroke-linejoin="round"/>
<path fill-rule="evenodd" clip-rule="evenodd" d="M9.0083 7.02479C9.0083 6.84121 9.15713 6.69238 9.34071 6.69238H11.6676C11.8512 6.69238 12 6.84121 12 7.02479C12 7.20838 11.8512 7.3572 11.6676 7.3572H9.34071C9.15713 7.3572 9.0083 7.20838 9.0083 7.02479Z" fill="black" stroke="black" stroke-width="0.2" stroke-linecap="round" stroke-linejoin="round"/>
<path fill-rule="evenodd" clip-rule="evenodd" d="M0.184985 9.23674C0.431632 8.9901 0.831525 8.9901 1.07817 9.23674L2.52631 10.6849L3.97445 9.23674C4.2211 8.9901 4.62099 8.9901 4.86764 9.23674C5.11429 9.48339 5.11429 9.88328 4.86764 10.1299L2.97291 12.0247C2.72626 12.2713 2.32637 12.2713 2.07972 12.0247L0.184985 10.1299C-0.0616617 9.88328 -0.0616617 9.48339 0.184985 9.23674Z" fill="black"/>
<path fill-rule="evenodd" clip-rule="evenodd" d="M2.5266 0.841797C2.87541 0.841797 3.15818 1.12456 3.15818 1.47337V10.3155C3.15818 10.6643 2.87541 10.947 2.5266 10.947C2.17779 10.947 1.89502 10.6643 1.89502 10.3155V1.47337C1.89502 1.12456 2.17779 0.841797 2.5266 0.841797Z" fill="black"/>
</svg>
