<svg width="15" height="15" viewBox="0 0 15 15" fill="none" xmlns="http://www.w3.org/2000/svg">
<path fill-rule="evenodd" clip-rule="evenodd" d="M6.25 3.125C6.25 2.77982 6.52982 2.5 6.875 2.5H13.125C13.4702 2.5 13.75 2.77982 13.75 3.125C13.75 3.47018 13.4702 3.75 13.125 3.75H6.875C6.52982 3.75 6.25 3.47018 6.25 3.125Z" fill="black"/>
<path fill-rule="evenodd" clip-rule="evenodd" d="M6.25 5.625C6.25 5.27982 6.52982 5 6.875 5H11.25C11.5952 5 11.875 5.27982 11.875 5.625C11.875 5.97018 11.5952 6.25 11.25 6.25H6.875C6.52982 6.25 6.25 5.97018 6.25 5.625Z" fill="black"/>
<path fill-rule="evenodd" clip-rule="evenodd" d="M6.25 8.125C6.25 7.77982 6.52982 7.5 6.875 7.5H9.375C9.72018 7.5 10 7.77982 10 8.125C10 8.47018 9.72018 8.75 9.375 8.75H6.875C6.52982 8.75 6.25 8.47018 6.25 8.125Z" fill="black"/>
<path fill-rule="evenodd" clip-rule="evenodd" d="M1.43306 10.1831C1.67714 9.93898 2.07286 9.93898 2.31694 10.1831L3.75 11.6161L5.18306 10.1831C5.42714 9.93898 5.82286 9.93898 6.06694 10.1831C6.31102 10.4271 6.31102 10.8229 6.06694 11.0669L4.19194 12.9419C3.94786 13.186 3.55214 13.186 3.30806 12.9419L1.43306 11.0669C1.18898 10.8229 1.18898 10.4271 1.43306 10.1831Z" fill="black"/>
<path fill-rule="evenodd" clip-rule="evenodd" d="M3.75 1.875C4.09518 1.875 4.375 2.15482 4.375 2.5V11.25C4.375 11.5952 4.09518 11.875 3.75 11.875C3.40482 11.875 3.125 11.5952 3.125 11.25V2.5C3.125 2.15482 3.40482 1.875 3.75 1.875Z" fill="black"/>
</svg>
