<svg width="15" height="15" viewBox="0 0 15 15" fill="none" xmlns="http://www.w3.org/2000/svg">
<path fill-rule="evenodd" clip-rule="evenodd" d="M6.25 11.875C6.25 12.2202 6.52982 12.5 6.875 12.5L13.125 12.5C13.4702 12.5 13.75 12.2202 13.75 11.875C13.75 11.5298 13.4702 11.25 13.125 11.25L6.875 11.25C6.52982 11.25 6.25 11.5298 6.25 11.875Z" fill="black"/>
<path fill-rule="evenodd" clip-rule="evenodd" d="M6.25 9.375C6.25 9.72018 6.52982 10 6.875 10L11.25 10C11.5952 10 11.875 9.72018 11.875 9.375C11.875 9.02982 11.5952 8.75 11.25 8.75L6.875 8.75C6.52982 8.75 6.25 9.02982 6.25 9.375Z" fill="black"/>
<path fill-rule="evenodd" clip-rule="evenodd" d="M6.25 6.875C6.25 7.22018 6.52982 7.5 6.875 7.5L9.375 7.5C9.72018 7.5 10 7.22018 10 6.875C10 6.52982 9.72018 6.25 9.375 6.25L6.875 6.25C6.52982 6.25 6.25 6.52982 6.25 6.875Z" fill="black"/>
<path fill-rule="evenodd" clip-rule="evenodd" d="M1.43306 4.81694C1.67714 5.06102 2.07286 5.06102 2.31694 4.81694L3.75 3.38388L5.18306 4.81694C5.42714 5.06102 5.82286 5.06102 6.06694 4.81694C6.31102 4.57286 6.31102 4.17714 6.06694 3.93306L4.19194 2.05806C3.94786 1.81398 3.55214 1.81398 3.30806 2.05806L1.43306 3.93306C1.18898 4.17714 1.18898 4.57286 1.43306 4.81694Z" fill="black"/>
<path fill-rule="evenodd" clip-rule="evenodd" d="M3.75 13.125C4.09518 13.125 4.375 12.8452 4.375 12.5L4.375 3.75C4.375 3.40482 4.09518 3.125 3.75 3.125C3.40482 3.125 3.125 3.40482 3.125 3.75L3.125 12.5C3.125 12.8452 3.40482 13.125 3.75 13.125Z" fill="black"/>
</svg>
