<svg width="13" height="13" viewBox="0 0 13 13" fill="none" xmlns="http://www.w3.org/2000/svg">
<path fill-rule="evenodd" clip-rule="evenodd" d="M2.7085 2.16634C2.40934 2.16634 2.16683 2.40885 2.16683 2.70801V10.2913C2.16683 10.5905 2.40934 10.833 2.7085 10.833H10.2918C10.591 10.833 10.8335 10.5905 10.8335 10.2913V2.70801C10.8335 2.40885 10.591 2.16634 10.2918 2.16634H2.7085ZM1.0835 2.70801C1.0835 1.81055 1.81103 1.08301 2.7085 1.08301H10.2918C11.1893 1.08301 11.9168 1.81055 11.9168 2.70801V10.2913C11.9168 11.1888 11.1893 11.9163 10.2918 11.9163H2.7085C1.81103 11.9163 1.0835 11.1888 1.0835 10.2913V2.70801Z" fill="black"/>
<path fill-rule="evenodd" clip-rule="evenodd" d="M1.0835 4.87467C1.0835 4.57552 1.32601 4.33301 1.62516 4.33301H11.3752C11.6743 4.33301 11.9168 4.57552 11.9168 4.87467C11.9168 5.17383 11.6743 5.41634 11.3752 5.41634H1.62516C1.32601 5.41634 1.0835 5.17383 1.0835 4.87467Z" fill="black"/>
<path fill-rule="evenodd" clip-rule="evenodd" d="M4.87516 4.33301C5.17432 4.33301 5.41683 4.57552 5.41683 4.87467V11.3747C5.41683 11.6738 5.17432 11.9163 4.87516 11.9163C4.57601 11.9163 4.3335 11.6738 4.3335 11.3747V4.87467C4.3335 4.57552 4.57601 4.33301 4.87516 4.33301Z" fill="black"/>
</svg>
