<svg width="16" height="16" viewBox="0 0 16 16" fill="none" xmlns="http://www.w3.org/2000/svg">
<path fill-rule="evenodd" clip-rule="evenodd" d="M7.3335 13.3337C7.3335 12.9655 7.63197 12.667 8.00016 12.667H14.0002C14.3684 12.667 14.6668 12.9655 14.6668 13.3337C14.6668 13.7018 14.3684 14.0003 14.0002 14.0003H8.00016C7.63197 14.0003 7.3335 13.7018 7.3335 13.3337Z" fill="black"/>
<path fill-rule="evenodd" clip-rule="evenodd" d="M12.0002 2.58626C11.8019 2.58626 11.6118 2.66502 11.4716 2.80521L3.26882 11.008L2.91642 12.4176L4.32601 12.0652L12.5288 3.86241C12.5982 3.79299 12.6533 3.71058 12.6908 3.61988C12.7284 3.52919 12.7477 3.43198 12.7477 3.33381C12.7477 3.23564 12.7284 3.13843 12.6908 3.04774C12.6533 2.95704 12.5982 2.87463 12.5288 2.80521C12.4594 2.7358 12.3769 2.68073 12.2863 2.64317C12.1956 2.6056 12.0983 2.58626 12.0002 2.58626ZM10.5288 1.86241C10.919 1.47216 11.4483 1.25293 12.0002 1.25293C12.2734 1.25293 12.544 1.30675 12.7965 1.41133C13.049 1.5159 13.2784 1.66918 13.4716 1.86241C13.6648 2.05563 13.8181 2.28503 13.9227 2.53749C14.0272 2.78996 14.0811 3.06054 14.0811 3.33381C14.0811 3.60708 14.0272 3.87766 13.9227 4.13013C13.8181 4.38259 13.6648 4.61199 13.4716 4.80521L5.13825 13.1385C5.05281 13.224 4.94576 13.2846 4.82853 13.3139L2.16187 13.9806C1.93468 14.0374 1.69436 13.9708 1.52877 13.8052C1.36319 13.6396 1.29662 13.3993 1.35342 13.1721L2.02008 10.5055C2.04939 10.3882 2.11 10.2812 2.19544 10.1957L10.5288 1.86241Z" fill="black"/>
</svg>
