<svg width="15" height="15" viewBox="0 0 15 15" fill="none" xmlns="http://www.w3.org/2000/svg">
<path fill-rule="evenodd" clip-rule="evenodd" d="M9.55806 3.30806C9.80214 3.06398 10.1979 3.06398 10.4419 3.30806L14.1919 7.05806C14.436 7.30214 14.436 7.69786 14.1919 7.94194L10.4419 11.6919C10.1979 11.936 9.80214 11.936 9.55806 11.6919C9.31398 11.4479 9.31398 11.0521 9.55806 10.8081L12.8661 7.5L9.55806 4.19194C9.31398 3.94786 9.31398 3.55214 9.55806 3.30806Z" fill="black"/>
<path fill-rule="evenodd" clip-rule="evenodd" d="M5.44194 3.30806C5.68602 3.55214 5.68602 3.94786 5.44194 4.19194L2.13388 7.5L5.44194 10.8081C5.68602 11.0521 5.68602 11.4479 5.44194 11.6919C5.19786 11.936 4.80214 11.936 4.55806 11.6919L0.808058 7.94194C0.563981 7.69786 0.563981 7.30214 0.808058 7.05806L4.55806 3.30806C4.80214 3.06398 5.19786 3.06398 5.44194 3.30806Z" fill="black"/>
</svg>
