<svg width="14" height="14" viewBox="0 0 14 14" fill="none" xmlns="http://www.w3.org/2000/svg">
<path fill-rule="evenodd" clip-rule="evenodd" d="M2.91699 2.33366C2.59483 2.33366 2.33366 2.59483 2.33366 2.91699V11.0837C2.33366 11.4058 2.59483 11.667 2.91699 11.667H11.0837C11.4058 11.667 11.667 11.4058 11.667 11.0837V2.91699C11.667 2.59483 11.4058 2.33366 11.0837 2.33366H2.91699ZM1.16699 2.91699C1.16699 1.95049 1.95049 1.16699 2.91699 1.16699H11.0837C12.0502 1.16699 12.8337 1.95049 12.8337 2.91699V11.0837C12.8337 12.0502 12.0502 12.8337 11.0837 12.8337H2.91699C1.95049 12.8337 1.16699 12.0502 1.16699 11.0837V2.91699Z" fill="black"/>
<path fill-rule="evenodd" clip-rule="evenodd" d="M4.95833 4.66667C4.79725 4.66667 4.66667 4.79725 4.66667 4.95833C4.66667 5.11942 4.79725 5.25 4.95833 5.25C5.11942 5.25 5.25 5.11942 5.25 4.95833C5.25 4.79725 5.11942 4.66667 4.95833 4.66667ZM3.5 4.95833C3.5 4.15292 4.15292 3.5 4.95833 3.5C5.76375 3.5 6.41667 4.15292 6.41667 4.95833C6.41667 5.76375 5.76375 6.41667 4.95833 6.41667C4.15292 6.41667 3.5 5.76375 3.5 4.95833Z" fill="black"/>
<path fill-rule="evenodd" clip-rule="evenodd" d="M8.92053 5.42085C9.14833 5.19305 9.51768 5.19305 9.74549 5.42085L12.6622 8.33752C12.89 8.56533 12.89 8.93467 12.6622 9.16248C12.4343 9.39028 12.065 9.39028 11.8372 9.16248L9.33301 6.65829L3.32882 12.6625C3.10101 12.8903 2.73167 12.8903 2.50386 12.6625C2.27606 12.4347 2.27606 12.0653 2.50386 11.8375L8.92053 5.42085Z" fill="black"/>
</svg>
