<svg width="11" height="11" viewBox="0 0 11 11" fill="none" xmlns="http://www.w3.org/2000/svg">
<path d="M7.33333 7.79134C6.55875 7.79134 5.93542 7.54384 5.33042 7.30092C4.78042 7.08092 4.26708 6.87467 3.66667 6.87467C2.54833 6.87467 2.14958 7.20467 2.145 7.20926C2.0075 7.32384 1.81042 7.36051 1.65 7.28717C1.485 7.20926 1.375 7.05342 1.375 6.87467V1.37467C1.375 1.25092 1.42542 1.13634 1.50792 1.04926C1.60875 0.953008 2.17708 0.458008 3.66667 0.458008C4.44125 0.458008 5.06458 0.705508 5.66958 0.948424C6.21958 1.16842 6.73292 1.37467 7.33333 1.37467C8.45167 1.37467 8.85042 1.04467 8.855 1.04009C8.9925 0.920924 9.18958 0.888841 9.35 0.962174C9.515 1.04009 9.625 1.19592 9.625 1.37467V6.87467C9.625 6.99842 9.57458 7.11301 9.49208 7.20009C9.39125 7.29634 8.82292 7.79134 7.33333 7.79134ZM3.66667 5.95801C4.44125 5.95801 5.06458 6.20551 5.66958 6.44842C6.21958 6.66842 6.73292 6.87467 7.33333 6.87467C8.08042 6.87467 8.50667 6.72801 8.70833 6.62717V2.11259C8.37833 2.21342 7.92917 2.29134 7.33333 2.29134C6.55875 2.29134 5.93542 2.04384 5.33042 1.80092C4.78042 1.58092 4.26708 1.37467 3.66667 1.37467C2.91958 1.37467 2.49333 1.52134 2.29167 1.62217V6.13676C2.62167 6.03592 3.07083 5.95801 3.66667 5.95801Z" fill="black"/>
<path d="M1.83333 10.542C1.58125 10.542 1.375 10.3357 1.375 10.0837V6.87533C1.375 6.62324 1.58125 6.41699 1.83333 6.41699C2.08542 6.41699 2.29167 6.62324 2.29167 6.87533V10.0837C2.29167 10.3357 2.08542 10.542 1.83333 10.542Z" fill="black"/>
</svg>
