<svg width="15" height="15" viewBox="0 0 15 15" fill="none" xmlns="http://www.w3.org/2000/svg">
<path fill-rule="evenodd" clip-rule="evenodd" d="M0.625 7.5C0.625 7.15482 0.904822 6.875 1.25 6.875H5C5.20897 6.875 5.40412 6.97944 5.52003 7.15331L6.58449 8.75H8.41551L9.47997 7.15331C9.59588 6.97944 9.79103 6.875 10 6.875H13.75C14.0952 6.875 14.375 7.15482 14.375 7.5C14.375 7.84518 14.0952 8.125 13.75 8.125H10.3345L9.27003 9.72169C9.15412 9.89556 8.95897 10 8.75 10H6.25C6.04103 10 5.84588 9.89556 5.72997 9.72169L4.66551 8.125H1.25C0.904822 8.125 0.625 7.84518 0.625 7.5Z" fill="black"/>
<path fill-rule="evenodd" clip-rule="evenodd" d="M4.525 1.875L10.475 1.875C10.8238 1.87519 11.166 1.97268 11.4625 2.15651C11.7587 2.34019 11.9978 2.60278 12.153 2.9148C12.1532 2.91507 12.1533 2.91535 12.1535 2.91563L14.3089 7.22017C14.3524 7.30704 14.375 7.40285 14.375 7.5V11.25C14.375 11.7473 14.1775 12.2242 13.8258 12.5758C13.4742 12.9275 12.9973 13.125 12.5 13.125H2.5C2.00272 13.125 1.52581 12.9275 1.17417 12.5758C0.822544 12.2242 0.625 11.7473 0.625 11.25V7.5C0.625 7.40285 0.647648 7.30704 0.691145 7.22017L2.84654 2.91563C2.84669 2.91532 2.84685 2.91502 2.847 2.91471C3.00224 2.60273 3.24136 2.34017 3.53752 2.15651C3.83398 1.97268 4.17617 1.87519 4.525 1.875ZM3.40625 3.19375L3.9651 3.47358L1.875 7.64773V11.25C1.875 11.4158 1.94085 11.5747 2.05806 11.6919C2.17527 11.8092 2.33424 11.875 2.5 11.875H12.5C12.6658 11.875 12.8247 11.8092 12.9419 11.6919C13.0592 11.5747 13.125 11.4158 13.125 11.25V7.64773L11.0349 3.47358L11.034 3.47188C10.9823 3.36775 10.9025 3.28012 10.8037 3.21884C10.7049 3.15758 10.591 3.12508 10.4748 3.125H4.52521C4.40898 3.12508 4.29507 3.15758 4.19628 3.21884C4.09746 3.28012 4.0177 3.36775 3.96596 3.47188L3.40625 3.19375Z" fill="black"/>
</svg>
