<svg width="15" height="15" viewBox="0 0 15 15" fill="none" xmlns="http://www.w3.org/2000/svg">
<path fill-rule="evenodd" clip-rule="evenodd" d="M0.915291 9.66529C1.50134 9.07924 2.2962 8.75 3.125 8.75H7.5C8.3288 8.75 9.12366 9.07924 9.70971 9.66529C10.2958 10.2513 10.625 11.0462 10.625 11.875V13.125C10.625 13.4702 10.3452 13.75 10 13.75C9.65482 13.75 9.375 13.4702 9.375 13.125V11.875C9.375 11.3777 9.17746 10.9008 8.82583 10.5492C8.47419 10.1975 7.99728 10 7.5 10H3.125C2.62772 10 2.15081 10.1975 1.79917 10.5492C1.44754 10.9008 1.25 11.3777 1.25 11.875V13.125C1.25 13.4702 0.970178 13.75 0.625 13.75C0.279822 13.75 0 13.4702 0 13.125V11.875C0 11.0462 0.32924 10.2513 0.915291 9.66529Z" fill="black"/>
<path fill-rule="evenodd" clip-rule="evenodd" d="M5.3125 2.5C4.27697 2.5 3.4375 3.33947 3.4375 4.375C3.4375 5.41053 4.27697 6.25 5.3125 6.25C6.34803 6.25 7.1875 5.41053 7.1875 4.375C7.1875 3.33947 6.34803 2.5 5.3125 2.5ZM2.1875 4.375C2.1875 2.64911 3.58661 1.25 5.3125 1.25C7.03839 1.25 8.4375 2.64911 8.4375 4.375C8.4375 6.10089 7.03839 7.5 5.3125 7.5C3.58661 7.5 2.1875 6.10089 2.1875 4.375Z" fill="black"/>
<path fill-rule="evenodd" clip-rule="evenodd" d="M14.8169 5.18306C15.061 5.42714 15.061 5.82286 14.8169 6.06694L12.3169 8.56694C12.0729 8.81102 11.6771 8.81102 11.4331 8.56694L10.1831 7.31694C9.93898 7.07286 9.93898 6.67714 10.1831 6.43306C10.4271 6.18898 10.8229 6.18898 11.0669 6.43306L11.875 7.24112L13.9331 5.18306C14.1771 4.93898 14.5729 4.93898 14.8169 5.18306Z" fill="black"/>
</svg>
