<svg width="14" height="14" viewBox="0 0 14 14" fill="none" xmlns="http://www.w3.org/2000/svg">
<path fill-rule="evenodd" clip-rule="evenodd" d="M3.59031 7C3.61602 7.04137 3.64487 7.08667 3.67682 7.13525C3.84268 7.38751 4.08811 7.7226 4.40593 8.05557C5.05145 8.73186 5.92972 9.33333 7.00016 9.33333C8.07029 9.33333 8.94856 8.73188 9.5942 8.05554C9.91206 7.72256 10.1576 7.38747 10.3235 7.1352C10.3554 7.08663 10.3843 7.04135 10.41 7C10.3843 6.95864 10.3554 6.91337 10.3235 6.8648C10.1576 6.61253 9.91206 6.27744 9.5942 5.94446C8.94856 5.26812 8.07029 4.66667 7.00016 4.66667C5.92972 4.66667 5.05145 5.26814 4.40593 5.94443C4.08811 6.2774 3.84268 6.61249 3.67682 6.86475C3.64487 6.91333 3.61602 6.95863 3.59031 7ZM11.0835 7C11.6033 6.73531 11.6032 6.73512 11.6031 6.73491L11.6023 6.73333L11.6007 6.73029L11.5959 6.72106C11.592 6.71354 11.5866 6.7033 11.5797 6.69051C11.5659 6.66496 11.5463 6.62921 11.5208 6.58473C11.4699 6.49583 11.3955 6.37159 11.2982 6.22374C11.1045 5.92913 10.8163 5.53506 10.4381 5.13888C9.69159 4.35688 8.5282 3.5 7.00016 3.5C5.47185 3.5 4.30846 4.35686 3.562 5.1389C3.18383 5.5351 2.89569 5.92918 2.70199 6.2238C2.60477 6.37165 2.53039 6.4959 2.47949 6.5848C2.45401 6.62928 2.43435 6.66503 2.42058 6.69059C2.41369 6.70337 2.40828 6.71362 2.40434 6.72114L2.39954 6.73037L2.39798 6.73341L2.3974 6.73454C2.3973 6.73474 2.39697 6.73539 2.91683 7L2.39697 6.73539C2.31234 6.90165 2.31234 7.09835 2.39697 7.26461L2.91683 7C2.39697 7.26461 2.39686 7.26441 2.39697 7.26461L2.3974 7.26546L2.39798 7.26659L2.39954 7.26963L2.40434 7.27886C2.40828 7.28638 2.41369 7.29663 2.42058 7.30941C2.43435 7.33496 2.45401 7.37071 2.47949 7.4152C2.53039 7.5041 2.60477 7.62835 2.70199 7.7762C2.89569 8.07082 3.18383 8.4649 3.562 8.8611C4.30846 9.64314 5.47185 10.5 7.00016 10.5C8.5282 10.5 9.69159 9.64312 10.4381 8.86112C10.8163 8.46494 11.1045 8.07087 11.2982 7.77626C11.3955 7.62841 11.4699 7.50417 11.5208 7.41527C11.5463 7.37079 11.5659 7.33504 11.5797 7.30949C11.5866 7.2967 11.592 7.28646 11.5959 7.27894L11.6007 7.26971L11.6023 7.26667L11.6029 7.26555C11.603 7.26534 11.6033 7.26469 11.0835 7ZM11.0835 7L11.6033 7.26469C11.688 7.09839 11.6878 6.90122 11.6031 6.73491L11.0835 7Z" fill="black"/>
<path fill-rule="evenodd" clip-rule="evenodd" d="M6.1752 6.17472C6.394 5.95592 6.69074 5.83301 7.00016 5.83301C7.30958 5.83301 7.60633 5.95592 7.82512 6.17472C8.04391 6.39351 8.16683 6.69025 8.16683 6.99967C8.16683 7.30909 8.04391 7.60584 7.82512 7.82463C7.60633 8.04342 7.30958 8.16634 7.00016 8.16634C6.69074 8.16634 6.394 8.04342 6.1752 7.82463C5.95641 7.60584 5.8335 7.30909 5.8335 6.99967C5.8335 6.69025 5.95641 6.39351 6.1752 6.17472Z" fill="black"/>
<path fill-rule="evenodd" clip-rule="evenodd" d="M1.67907 1.67956C2.00726 1.35137 2.45238 1.16699 2.9165 1.16699H11.0832C11.5473 1.16699 11.9924 1.35137 12.3206 1.67956C12.6488 2.00774 12.8332 2.45286 12.8332 2.91699V4.66699C12.8332 4.98916 12.572 5.25033 12.2498 5.25033C11.9277 5.25033 11.6665 4.98916 11.6665 4.66699V2.91699C11.6665 2.76228 11.605 2.61391 11.4956 2.50451C11.3863 2.39512 11.2379 2.33366 11.0832 2.33366H2.9165C2.76179 2.33366 2.61342 2.39512 2.50403 2.50451C2.39463 2.61391 2.33317 2.76228 2.33317 2.91699V4.66699C2.33317 4.98916 2.072 5.25033 1.74984 5.25033C1.42767 5.25033 1.1665 4.98916 1.1665 4.66699V2.91699C1.1665 2.45286 1.35088 2.00774 1.67907 1.67956ZM1.74984 8.75033C2.072 8.75033 2.33317 9.01149 2.33317 9.33366V11.0837C2.33317 11.2384 2.39463 11.3867 2.50403 11.4961C2.61342 11.6055 2.76179 11.667 2.9165 11.667H11.0832C11.2379 11.667 11.3863 11.6055 11.4956 11.4961C11.605 11.3867 11.6665 11.2384 11.6665 11.0837V9.33366C11.6665 9.01149 11.9277 8.75033 12.2498 8.75033C12.572 8.75033 12.8332 9.01149 12.8332 9.33366V11.0837C12.8332 11.5478 12.6488 11.9929 12.3206 12.3211C11.9924 12.6493 11.5473 12.8337 11.0832 12.8337H2.9165C2.45237 12.8337 2.00726 12.6493 1.67907 12.3211C1.35088 11.9929 1.1665 11.5478 1.1665 11.0837V9.33366C1.1665 9.01149 1.42767 8.75033 1.74984 8.75033Z" fill="black"/>
</svg>
