<svg width="12" height="12" viewBox="0 0 12 12" fill="none" xmlns="http://www.w3.org/2000/svg">
<path fill-rule="evenodd" clip-rule="evenodd" d="M5.08752 1.40972C5.37326 1.69661 5.50001 2.08697 5.50001 2.50014V6.50014C5.50001 8.34507 4.96946 9.51207 4.12913 10.1996C3.30794 10.8715 2.29088 11.0001 1.50001 11.0001C1.49366 11.0001 1.48726 11.0001 1.48083 11.0001C1.373 11.0002 1.25436 11.0002 1.15573 10.9893C1.05491 10.9781 0.864119 10.9464 0.708956 10.7912C0.553793 10.636 0.522083 10.4452 0.51088 10.3444C0.499922 10.2458 0.499965 10.1271 0.500005 10.0193C0.500007 10.0129 0.50001 10.0065 0.50001 10.0001V9.01564C0.50001 9.00932 0.500007 9.00297 0.500005 8.99658C0.499969 8.88567 0.49993 8.76541 0.510715 8.66559C0.52162 8.56466 0.552047 8.37542 0.70226 8.21935C0.855799 8.05982 1.04706 8.02473 1.15186 8.01226C1.25412 8.00009 1.37634 8.00011 1.4862 8.00013L1.50001 8.00014C1.58739 8.00014 1.71663 7.95141 1.83396 7.83408C1.95128 7.71676 2.00001 7.58752 2.00001 7.50014V7.00014C1.58726 7.00014 1.19836 6.87434 0.912081 6.58806C0.625801 6.30178 0.50001 5.91289 0.50001 5.50014V2.48614C0.50001 2.0774 0.627604 1.69203 0.913895 1.40865C1.19964 1.12581 1.58733 1.00014 2.00001 1.00014H3.99684C4.41201 0.995238 4.80146 1.12253 5.08752 1.40972ZM4.379 2.11542C4.3214 2.05759 4.2123 1.99728 4.00684 2.00009L4.00001 2.00018V2.00014H2.00001C1.78769 2.00014 1.67537 2.06196 1.61737 2.11937C1.55992 2.17624 1.50001 2.28387 1.50001 2.48614V5.50014C1.50001 5.71238 1.56172 5.82349 1.61919 5.88096C1.67666 5.93843 1.78776 6.00014 2.00001 6.00014C2.00636 6.00014 2.01276 6.00013 2.01919 6.00013C2.12702 6.00009 2.24566 6.00005 2.34429 6.01101C2.44511 6.02221 2.6359 6.05392 2.79106 6.20908C2.94623 6.36425 2.97794 6.55503 2.98914 6.65586C3.0001 6.75449 3.00005 6.87313 3.00001 6.98096C3.00001 6.98739 3.00001 6.99379 3.00001 7.00014V7.50014C3.00001 7.91275 2.79874 8.28352 2.54106 8.54119C2.28339 8.79886 1.91263 9.00014 1.50001 9.00014C1.50001 9.00522 1.50001 9.01038 1.50001 9.01564V10.0001C2.20914 10.0001 2.94208 9.87878 3.49589 9.42566C4.03056 8.9882 4.50001 8.1552 4.50001 6.50014V2.50014C4.50001 2.2883 4.43776 2.17441 4.379 2.11542Z" fill="black"/>
<path fill-rule="evenodd" clip-rule="evenodd" d="M11.0873 1.40966C11.373 1.69646 11.5 2.08679 11.5 2.50014V6.50014C11.5 8.34507 10.9695 9.51207 10.1291 10.1996C9.30794 10.8715 8.29088 11.0001 7.50001 11.0001C7.49366 11.0001 7.48726 11.0001 7.48083 11.0001C7.373 11.0002 7.25436 11.0002 7.15573 10.9893C7.05491 10.9781 6.86412 10.9464 6.70896 10.7912C6.55379 10.636 6.52208 10.4452 6.51088 10.3444C6.49992 10.2458 6.49997 10.1271 6.5 10.0193C6.50001 10.0129 6.50001 10.0065 6.50001 10.0001V8.50014C6.50001 8.22399 6.72387 8.00014 7.00001 8.00014C7.33321 8.00014 7.52045 7.95043 7.62406 7.89863C7.71165 7.85483 7.75709 7.80174 7.79147 7.72265C7.83347 7.62606 7.86096 7.48299 7.8717 7.26288C7.8759 7.17681 7.87736 7.08901 7.87757 6.99636C7.51087 6.97351 7.16987 6.84585 6.91208 6.58806C6.6258 6.30178 6.50001 5.91289 6.50001 5.50014V2.48614C6.50001 2.0774 6.6276 1.69203 6.91389 1.40865C7.19964 1.12581 7.58733 1.00014 8.00001 1.00014H9.99684C10.4119 0.995237 10.8012 1.12258 11.0873 1.40966ZM10.3789 2.11549C10.3211 2.05753 10.212 1.99728 10.0068 2.00009L10 2.00018V2.00014H8.00001C7.78769 2.00014 7.67537 2.06196 7.61737 2.11937C7.55992 2.17624 7.50001 2.28387 7.50001 2.48614V5.50014C7.50001 5.71238 7.56172 5.82349 7.61919 5.88096C7.67666 5.93843 7.78776 6.00014 8.00001 6.00014H8.37501C8.65115 6.00014 8.87501 6.22399 8.87501 6.50014C8.87501 6.57197 8.87562 6.64651 8.87624 6.72219C8.87787 6.92029 8.87955 7.12617 8.87051 7.31161C8.85781 7.57197 8.8228 7.85859 8.70854 8.12137C8.58668 8.40166 8.38212 8.63763 8.07127 8.79305C7.90179 8.8778 7.71088 8.93354 7.50001 8.96563V10.0001C8.20914 10.0001 8.94208 9.87878 9.49589 9.42566C10.0306 8.9882 10.5 8.1552 10.5 6.50014V2.50014C10.5 2.28848 10.4377 2.17456 10.3789 2.11549Z" fill="black"/>
</svg>
