<svg width="16" height="16" viewBox="0 0 16 16" fill="none" xmlns="http://www.w3.org/2000/svg">
<path fill-rule="evenodd" clip-rule="evenodd" d="M4.6665 3.99967C4.6665 3.63148 4.96498 3.33301 5.33317 3.33301H13.9998C14.368 3.33301 14.6665 3.63148 14.6665 3.99967C14.6665 4.36786 14.368 4.66634 13.9998 4.66634H5.33317C4.96498 4.66634 4.6665 4.36786 4.6665 3.99967Z" fill="black"/>
<path fill-rule="evenodd" clip-rule="evenodd" d="M4.6665 7.99967C4.6665 7.63148 4.96498 7.33301 5.33317 7.33301H13.9998C14.368 7.33301 14.6665 7.63148 14.6665 7.99967C14.6665 8.36786 14.368 8.66634 13.9998 8.66634H5.33317C4.96498 8.66634 4.6665 8.36786 4.6665 7.99967Z" fill="black"/>
<path fill-rule="evenodd" clip-rule="evenodd" d="M4.6665 11.9997C4.6665 11.6315 4.96498 11.333 5.33317 11.333H13.9998C14.368 11.333 14.6665 11.6315 14.6665 11.9997C14.6665 12.3679 14.368 12.6663 13.9998 12.6663H5.33317C4.96498 12.6663 4.6665 12.3679 4.6665 11.9997Z" fill="black"/>
<path fill-rule="evenodd" clip-rule="evenodd" d="M1.3335 3.99967C1.3335 3.63148 1.63197 3.33301 2.00016 3.33301H2.00683C2.37502 3.33301 2.6735 3.63148 2.6735 3.99967C2.6735 4.36786 2.37502 4.66634 2.00683 4.66634H2.00016C1.63197 4.66634 1.3335 4.36786 1.3335 3.99967Z" fill="black"/>
<path fill-rule="evenodd" clip-rule="evenodd" d="M1.3335 7.99967C1.3335 7.63148 1.63197 7.33301 2.00016 7.33301H2.00683C2.37502 7.33301 2.6735 7.63148 2.6735 7.99967C2.6735 8.36786 2.37502 8.66634 2.00683 8.66634H2.00016C1.63197 8.66634 1.3335 8.36786 1.3335 7.99967Z" fill="black"/>
<path fill-rule="evenodd" clip-rule="evenodd" d="M1.3335 11.9997C1.3335 11.6315 1.63197 11.333 2.00016 11.333H2.00683C2.37502 11.333 2.6735 11.6315 2.6735 11.9997C2.6735 12.3679 2.37502 12.6663 2.00683 12.6663H2.00016C1.63197 12.6663 1.3335 12.3679 1.3335 11.9997Z" fill="black"/>
</svg>
