<svg width="14" height="14" viewBox="0 0 14 14" fill="none" xmlns="http://www.w3.org/2000/svg">
<path fill-rule="evenodd" clip-rule="evenodd" d="M13.2458 7.75386C13.4736 7.98167 13.4736 8.35101 13.2458 8.57882L10.9125 10.9122C10.6847 11.14 10.3153 11.14 10.0875 10.9122L8.92085 9.74549C8.69305 9.51768 8.69305 9.14833 8.92085 8.92053C9.14866 8.69272 9.51801 8.69272 9.74581 8.92053L10.5 9.67472L12.4209 7.75386C12.6487 7.52606 13.018 7.52606 13.2458 7.75386Z" fill="black"/>
<path fill-rule="evenodd" clip-rule="evenodd" d="M6.12609 0.818695C6.39182 0.665569 6.69313 0.584961 6.99984 0.584961C7.30656 0.584961 7.60788 0.665575 7.87362 0.818714C7.87403 0.818948 7.87443 0.819182 7.87484 0.819416L11.9582 3.15274C12.2239 3.30619 12.4447 3.52683 12.5983 3.79252C12.7518 4.05821 12.8329 4.35961 12.8332 4.6665V5.83376C12.8332 6.15593 12.572 6.4171 12.2498 6.4171C11.9277 6.4171 11.6665 6.15593 11.6665 5.83376V4.6677C11.6664 4.5654 11.6394 4.46493 11.5882 4.37637C11.5372 4.28811 11.4639 4.21477 11.3758 4.16365C11.3755 4.16347 11.3751 4.16329 11.3748 4.16311L7.2915 1.82978C7.20282 1.77859 7.10223 1.75163 6.99984 1.75163C6.89744 1.75163 6.79685 1.77858 6.70817 1.82978L6.70592 1.83108L2.62484 4.16311C2.62453 4.16329 2.62422 4.16347 2.62392 4.16364C2.53574 4.21477 2.46249 4.28811 2.41147 4.37637C2.36032 4.46486 2.33332 4.56524 2.33317 4.66744V9.33342C2.33332 9.43563 2.36032 9.536 2.41147 9.62449C2.46249 9.71275 2.53574 9.78609 2.62392 9.83722C2.62422 9.83739 2.62453 9.83757 2.62484 9.83775L6.70817 12.1711C6.79685 12.2223 6.89744 12.2492 6.99984 12.2492C7.10223 12.2492 7.20283 12.2223 7.2915 12.1711L7.2943 12.1695L8.46097 11.5045C8.74086 11.3449 9.09709 11.4425 9.25662 11.7224C9.41616 12.0023 9.3186 12.3585 9.03871 12.5181L7.87484 13.1814C7.87431 13.1817 7.87378 13.1821 7.87326 13.1824C7.60761 13.3354 7.30642 13.4159 6.99984 13.4159C6.69306 13.4159 6.39169 13.3353 6.12592 13.1821C6.12556 13.1819 6.1252 13.1817 6.12484 13.1814L2.04376 10.8494L2.0415 10.8481C1.77573 10.6947 1.55499 10.474 1.40141 10.2083C1.24783 9.94265 1.16682 9.64125 1.1665 9.33436V4.6665C1.16682 4.35961 1.24783 4.05821 1.40141 3.79252C1.55499 3.52683 1.77573 3.30619 2.0415 3.15275L2.04375 3.15145L6.12609 0.818695Z" fill="black"/>
<path fill-rule="evenodd" clip-rule="evenodd" d="M3.89887 2.18172C4.05978 1.90262 4.41649 1.80681 4.69559 1.96772L9.91642 4.97772C10.1955 5.13863 10.2913 5.49533 10.1304 5.77444C9.96951 6.05354 9.61281 6.14935 9.33371 5.98844L4.11287 2.97844C3.83377 2.81753 3.73796 2.46082 3.89887 2.18172Z" fill="black"/>
<path fill-rule="evenodd" clip-rule="evenodd" d="M1.41347 3.79302C1.57386 3.51362 1.93038 3.41714 2.20978 3.57753L7.0002 6.32748L11.7906 3.57753C12.07 3.41714 12.4265 3.51362 12.5869 3.79302C12.7473 4.07242 12.6509 4.42894 12.3715 4.58933L7.58354 7.33785V12.8334C7.58354 13.1556 7.32237 13.4168 7.0002 13.4168C6.67804 13.4168 6.41687 13.1556 6.41687 12.8334V7.33785L1.62895 4.58933C1.34955 4.42894 1.25308 4.07242 1.41347 3.79302Z" fill="black"/>
</svg>
