<svg width="14" height="14" viewBox="0 0 14 14" fill="none" xmlns="http://www.w3.org/2000/svg">
<path fill-rule="evenodd" clip-rule="evenodd" d="M6.64219 0.705886C6.85284 0.542049 7.14781 0.542049 7.35846 0.705886L12.6085 4.78922C12.7505 4.89974 12.8337 5.06966 12.8337 5.24967V11.6663C12.8337 12.1305 12.6493 12.5756 12.3211 12.9038C11.9929 13.232 11.5478 13.4163 11.0837 13.4163H2.91699C2.45286 13.4163 2.00774 13.232 1.67956 12.9038C1.35137 12.5756 1.16699 12.1305 1.16699 11.6663V5.24967C1.16699 5.06966 1.2501 4.89974 1.39219 4.78922L6.64219 0.705886ZM2.33366 5.53497V11.6663C2.33366 11.8211 2.39512 11.9694 2.50451 12.0788C2.61391 12.1882 2.76228 12.2497 2.91699 12.2497H11.0837C11.2384 12.2497 11.3867 12.1882 11.4961 12.0788C11.6055 11.9694 11.667 11.8211 11.667 11.6663V5.53497L7.00033 1.90534L2.33366 5.53497Z" fill="black"/>
<path fill-rule="evenodd" clip-rule="evenodd" d="M4.66699 7.00033C4.66699 6.67816 4.92816 6.41699 5.25033 6.41699H8.75033C9.07249 6.41699 9.33366 6.67816 9.33366 7.00033V12.8337C9.33366 13.1558 9.07249 13.417 8.75033 13.417C8.42816 13.417 8.16699 13.1558 8.16699 12.8337V7.58366H5.83366V12.8337C5.83366 13.1558 5.57249 13.417 5.25033 13.417C4.92816 13.417 4.66699 13.1558 4.66699 12.8337V7.00033Z" fill="black"/>
</svg>
