<svg width="14" height="14" viewBox="0 0 14 14" fill="none" xmlns="http://www.w3.org/2000/svg">
<path fill-rule="evenodd" clip-rule="evenodd" d="M12.6028 3.03592C12.748 3.14623 12.8332 3.31804 12.8332 3.50033V10.5003C12.8332 10.6773 12.7529 10.8446 12.6148 10.9554C12.4768 11.0661 12.296 11.1082 12.1233 11.0698L1.62329 8.73644C1.3564 8.67713 1.1665 8.4404 1.1665 8.167V6.417C1.1665 6.15496 1.34123 5.92508 1.59371 5.85494L12.0937 2.93828C12.2694 2.88949 12.4577 2.92561 12.6028 3.03592ZM2.33317 6.86038V7.69906L11.6665 9.77314V4.26779L2.33317 6.86038Z" fill="black"/>
<path fill-rule="evenodd" clip-rule="evenodd" d="M3.53846 8.30435C3.84903 8.39003 4.03134 8.71124 3.94567 9.02181C3.90475 9.17012 3.89345 9.32503 3.91241 9.4777C3.93137 9.63038 3.98021 9.77782 4.05615 9.91162C4.13209 10.0454 4.23364 10.1629 4.355 10.2575C4.47636 10.3521 4.61516 10.4218 4.76346 10.4627C4.91177 10.5036 5.06668 10.5149 5.21936 10.4959C5.37203 10.477 5.51947 10.4281 5.65327 10.3522C5.78707 10.2763 5.9046 10.1747 5.99915 10.0534C6.09371 9.932 6.16343 9.7932 6.20434 9.64489C6.29002 9.33433 6.61123 9.15201 6.9218 9.23769C7.23236 9.32336 7.41467 9.64458 7.329 9.95514C7.24735 10.2511 7.10819 10.5282 6.91948 10.7704C6.73076 11.0126 6.49619 11.2153 6.22915 11.3668C5.96211 11.5184 5.66783 11.6159 5.36311 11.6537C5.05839 11.6916 4.74921 11.669 4.45321 11.5873C4.15721 11.5057 3.8802 11.3665 3.63798 11.1778C3.39576 10.9891 3.19308 10.7545 3.04152 10.4875C2.88995 10.2205 2.79247 9.92617 2.75463 9.62146C2.7168 9.31674 2.73935 9.00756 2.82101 8.71156C2.90668 8.40099 3.2279 8.21868 3.53846 8.30435Z" fill="black"/>
</svg>
