<svg width="14" height="14" viewBox="0 0 14 14" fill="none" xmlns="http://www.w3.org/2000/svg">
<path fill-rule="evenodd" clip-rule="evenodd" d="M2.26256 1.09557C2.59075 0.767382 3.03587 0.583008 3.5 0.583008H8.45833C8.61304 0.583008 8.76142 0.644466 8.87081 0.753862L12.0791 3.9622C12.1885 4.07159 12.25 4.21997 12.25 4.37467V11.6663C12.25 12.1305 12.0656 12.5756 11.7374 12.9038C11.4092 13.232 10.9641 13.4163 10.5 13.4163H3.5C3.03587 13.4163 2.59075 13.232 2.26256 12.9038C1.93437 12.5756 1.75 12.1305 1.75 11.6663V2.33301C1.75 1.86888 1.93437 1.42376 2.26256 1.09557ZM3.5 1.74967C3.34529 1.74967 3.19692 1.81113 3.08752 1.92053C2.97812 2.02993 2.91667 2.1783 2.91667 2.33301V11.6663C2.91667 11.8211 2.97812 11.9694 3.08752 12.0788C3.19692 12.1882 3.34529 12.2497 3.5 12.2497H10.5C10.6547 12.2497 10.8031 12.1882 10.9125 12.0788C11.0219 11.9694 11.0833 11.8211 11.0833 11.6663V4.6163L8.21671 1.74967H3.5Z" fill="black"/>
<path fill-rule="evenodd" clip-rule="evenodd" d="M8.16634 0.583008C8.48851 0.583008 8.74967 0.844175 8.74967 1.16634V4.08301H11.6663C11.9885 4.08301 12.2497 4.34417 12.2497 4.66634C12.2497 4.98851 11.9885 5.24967 11.6663 5.24967H8.16634C7.84418 5.24967 7.58301 4.98851 7.58301 4.66634V1.16634C7.58301 0.844175 7.84418 0.583008 8.16634 0.583008Z" fill="black"/>
<path fill-rule="evenodd" clip-rule="evenodd" d="M4.08301 7.58333C4.08301 7.26117 4.34418 7 4.66634 7H9.33301C9.65517 7 9.91634 7.26117 9.91634 7.58333C9.91634 7.9055 9.65517 8.16667 9.33301 8.16667H4.66634C4.34418 8.16667 4.08301 7.9055 4.08301 7.58333Z" fill="black"/>
<path fill-rule="evenodd" clip-rule="evenodd" d="M4.08301 9.91634C4.08301 9.59418 4.34418 9.33301 4.66634 9.33301H9.33301C9.65517 9.33301 9.91634 9.59418 9.91634 9.91634C9.91634 10.2385 9.65517 10.4997 9.33301 10.4997H4.66634C4.34418 10.4997 4.08301 10.2385 4.08301 9.91634Z" fill="black"/>
<path fill-rule="evenodd" clip-rule="evenodd" d="M4.08301 5.25033C4.08301 4.92816 4.34417 4.66699 4.66634 4.66699H5.83301C6.15517 4.66699 6.41634 4.92816 6.41634 5.25033C6.41634 5.57249 6.15517 5.83366 5.83301 5.83366H4.66634C4.34417 5.83366 4.08301 5.57249 4.08301 5.25033Z" fill="black"/>
</svg>
