<svg width="14" height="14" viewBox="0 0 14 14" fill="none" xmlns="http://www.w3.org/2000/svg">
<g clip-path="url(#clip0_167_3478)">
<path fill-rule="evenodd" clip-rule="evenodd" d="M6.99976 1.75C6.99981 1.75 6.99984 1.75 6.99984 2.33333L6.99984 2.91667L6.95582 2.91673C6.92663 2.9168 6.88351 2.91692 6.82817 2.91718C6.71749 2.9177 6.55797 2.91874 6.36332 2.92083C5.97379 2.92499 5.44466 2.93332 4.88509 2.94995C4.32458 2.96661 3.7382 2.99146 3.23275 3.02832C2.71469 3.06611 2.32975 3.1136 2.13797 3.16411C1.96373 3.21417 1.8056 3.30898 1.67934 3.43914C1.55618 3.56611 1.46757 3.72236 1.42178 3.89302C1.24705 4.8693 1.1616 5.85948 1.1665 6.85128L1.16654 6.85783C1.16028 7.85371 1.24509 8.84804 1.41996 9.82842C1.47049 9.99039 1.55999 10.1376 1.68077 10.2572C1.8073 10.3824 1.96389 10.473 2.13551 10.5202C2.32645 10.571 2.71246 10.6187 3.23275 10.6567C3.7382 10.6935 4.32458 10.7184 4.88509 10.735C5.44466 10.7517 5.97379 10.76 6.36332 10.7642C6.55797 10.7663 6.71748 10.7673 6.82817 10.7678C6.88351 10.7681 6.92663 10.7682 6.95582 10.7683H7.04387C7.07306 10.7682 7.11618 10.7681 7.17152 10.7678C7.2822 10.7673 7.44172 10.7663 7.63637 10.7642C8.0259 10.76 8.55503 10.7517 9.1146 10.735C9.67511 10.7184 10.2615 10.6935 10.7669 10.6567C11.285 10.6189 11.6699 10.5714 11.8617 10.5209C12.036 10.4708 12.1941 10.376 12.3203 10.2459C12.4435 10.1189 12.5321 9.96264 12.5779 9.79199C12.7513 8.82312 12.8367 7.84055 12.8332 6.85626L12.8332 6.8505C12.8394 5.85117 12.754 4.85338 12.5779 3.8697C12.5321 3.69903 12.4435 3.54278 12.3203 3.4158C12.1955 3.28713 12.0396 3.19301 11.8677 3.14252C11.6694 3.09587 11.283 3.05286 10.7706 3.01874C10.2641 2.98501 9.67695 2.96229 9.11611 2.94708C8.55611 2.93188 8.02665 2.92427 7.63691 2.92047C7.44215 2.91856 7.28253 2.91761 7.17175 2.91714L7.04398 2.91673L6.99984 2.91667L6.99984 2.33333C6.99984 1.75 6.99981 1.75 6.99976 1.75L7.04634 1.75006C7.07639 1.75012 7.12044 1.75024 7.17675 1.75048C7.28937 1.75097 7.45114 1.75193 7.6483 1.75386C8.04242 1.75771 8.57899 1.76541 9.14775 1.78084C9.71565 1.79625 10.3199 1.81947 10.8481 1.85465C11.3613 1.88882 11.8482 1.93676 12.1549 2.01165C12.1617 2.01332 12.1685 2.01511 12.1753 2.01703C12.5487 2.12267 12.8876 2.32497 13.1578 2.6035C13.4279 2.88204 13.6198 3.22693 13.7141 3.60336L13.1482 3.745L13.7222 3.64145C13.9135 4.70179 14.0064 5.77752 13.9999 6.85494C14.0035 7.91625 13.9106 8.9757 13.7223 10.0202C13.7199 10.033 13.7172 10.0457 13.7141 10.0583C13.6198 10.4347 13.4279 10.7796 13.1578 11.0582C12.8876 11.3367 12.5487 11.539 12.1753 11.6446L12.1672 11.6469C11.8559 11.7301 11.3647 11.7828 10.8518 11.8203C10.3226 11.8589 9.7175 11.8843 9.14925 11.9012C8.58008 11.9181 8.04317 11.9266 7.64884 11.9308C7.45157 11.9329 7.2897 11.9339 7.17699 11.9345C7.12063 11.9347 7.07654 11.9349 7.04645 11.9349L7.0001 11.935L6.95324 11.9349C6.92315 11.9349 6.87906 11.9347 6.8227 11.9345C6.70999 11.9339 6.54812 11.9329 6.35084 11.9308C5.95652 11.9266 5.41961 11.9181 4.85044 11.9012C4.2822 11.8843 3.67712 11.8589 3.14788 11.8203C2.63495 11.7828 2.14376 11.7301 1.83247 11.6469L1.82922 11.646C1.46343 11.5459 1.12964 11.3532 0.860093 11.0864C0.590546 10.8196 0.394358 10.4878 0.290486 10.1231C0.285213 10.1046 0.28086 10.0858 0.277443 10.0669C0.0862033 9.00667 -0.00672632 7.93107 -0.000163568 6.85378C-0.00524688 5.78454 0.0876753 4.71709 0.277439 3.66481C0.279745 3.65202 0.282479 3.6393 0.285635 3.6267C0.379854 3.25027 0.571742 2.90537 0.841919 2.62684C1.1121 2.3483 1.45099 2.146 1.82438 2.04037L1.83247 2.03814C2.14376 1.95489 2.63495 1.90216 3.14788 1.86475C3.67712 1.82615 4.28219 1.80068 4.85044 1.7838C5.41961 1.76689 5.95652 1.75844 6.35084 1.75423C6.54812 1.75212 6.70999 1.75106 6.8227 1.75053C6.87906 1.75027 6.92315 1.75013 6.95324 1.75007L6.99976 1.75Z" fill="black"/>
<path fill-rule="evenodd" clip-rule="evenodd" d="M5.39403 4.44239C5.57358 4.33794 5.79514 4.33685 5.97571 4.43954L9.32987 6.34704C9.51221 6.45074 9.62484 6.64435 9.62484 6.85411C9.62484 7.06388 9.51221 7.25749 9.32987 7.36119L5.97571 9.26869C5.79514 9.37137 5.57358 9.37029 5.39403 9.26584C5.21447 9.1614 5.104 8.96934 5.104 8.76161V4.94661C5.104 4.73889 5.21447 4.54683 5.39403 4.44239ZM6.27067 5.94942V7.75881L7.8615 6.85411L6.27067 5.94942Z" fill="black"/>
</g>
<defs>
<clipPath id="clip0_167_3478">
<rect width="14" height="14" fill="white"/>
</clipPath>
</defs>
</svg>
