<svg width="13" height="13" viewBox="0 0 13 13" fill="none" xmlns="http://www.w3.org/2000/svg">
<g clip-path="url(#clip0_114_1227)">
<path fill-rule="evenodd" clip-rule="evenodd" d="M6.50033 1.62533C3.80794 1.62533 1.62533 3.80794 1.62533 6.50033C1.62533 9.19271 3.80794 11.3753 6.50033 11.3753C9.19271 11.3753 11.3753 9.19271 11.3753 6.50033C11.3753 3.80794 9.19271 1.62533 6.50033 1.62533ZM0.541992 6.50033C0.541992 3.20963 3.20963 0.541992 6.50033 0.541992C9.79102 0.541992 12.4587 3.20963 12.4587 6.50033C12.4587 9.79102 9.79102 12.4587 6.50033 12.4587C3.20963 12.4587 0.541992 9.79102 0.541992 6.50033Z" fill="black"/>
<path fill-rule="evenodd" clip-rule="evenodd" d="M6.49967 3.79199C6.79883 3.79199 7.04134 4.0345 7.04134 4.33366V8.66699C7.04134 8.96615 6.79883 9.20866 6.49967 9.20866C6.20052 9.20866 5.95801 8.96615 5.95801 8.66699V4.33366C5.95801 4.0345 6.20052 3.79199 6.49967 3.79199Z" fill="black"/>
<path fill-rule="evenodd" clip-rule="evenodd" d="M3.79199 6.49967C3.79199 6.20052 4.0345 5.95801 4.33366 5.95801H8.66699C8.96615 5.95801 9.20866 6.20052 9.20866 6.49967C9.20866 6.79883 8.96615 7.04134 8.66699 7.04134H4.33366C4.0345 7.04134 3.79199 6.79883 3.79199 6.49967Z" fill="black"/>
</g>
<defs>
<clipPath id="clip0_114_1227">
<rect width="13" height="13" fill="white"/>
</clipPath>
</defs>
</svg>
