<svg width="15" height="15" viewBox="0 0 15 15" fill="none" xmlns="http://www.w3.org/2000/svg">
<path fill-rule="evenodd" clip-rule="evenodd" d="M0.625 1.25C0.625 0.904822 0.904822 0.625 1.25 0.625H7.5C7.66576 0.625 7.82473 0.690848 7.94194 0.808058L13.312 6.17812C13.6612 6.52943 13.8572 7.00465 13.8572 7.5C13.8572 7.99535 13.6612 8.47057 13.312 8.82187L12.8687 8.38125L13.3107 8.82319L8.82969 13.3042C8.82961 13.3043 8.82977 13.3041 8.82969 13.3042C8.6556 13.4784 8.44865 13.6169 8.22114 13.7112C7.99351 13.8055 7.74953 13.8541 7.50313 13.8541C7.25672 13.8541 7.01274 13.8055 6.78511 13.7112C6.55755 13.6168 6.3508 13.4786 6.17669 13.3043C6.17665 13.3043 6.17674 13.3044 6.17669 13.3043L0.808316 7.9422C0.690948 7.82497 0.625 7.66589 0.625 7.5V1.25ZM12.4255 7.94063C12.4257 7.94043 12.4259 7.94024 12.4261 7.94005C12.5421 7.823 12.6072 7.66484 12.6072 7.5C12.6072 7.33516 12.5421 7.177 12.4261 7.05995C12.4259 7.05976 12.4257 7.05957 12.4255 7.05937L7.24112 1.875H1.875V7.2409L7.06043 12.4203L7.06094 12.4208C7.11898 12.4789 7.18791 12.525 7.26379 12.5565C7.33966 12.5879 7.42099 12.6041 7.50313 12.6041C7.58526 12.6041 7.66659 12.5879 7.74246 12.5565C7.81834 12.525 7.88727 12.4789 7.94531 12.4208L12.4255 7.94063Z" fill="black"/>
<path fill-rule="evenodd" clip-rule="evenodd" d="M3.75 4.375C3.75 4.02982 4.02982 3.75 4.375 3.75H4.38125C4.72643 3.75 5.00625 4.02982 5.00625 4.375C5.00625 4.72018 4.72643 5 4.38125 5H4.375C4.02982 5 3.75 4.72018 3.75 4.375Z" fill="black"/>
</svg>
