<svg width="13" height="13" viewBox="0 0 13 13" fill="none" xmlns="http://www.w3.org/2000/svg">
<path fill-rule="evenodd" clip-rule="evenodd" d="M1.62492 7.5835C1.92407 7.5835 2.16659 7.82601 2.16659 8.12516V10.2918C2.16659 10.4355 2.22365 10.5733 2.32524 10.6748C2.42682 10.7764 2.56459 10.8335 2.70825 10.8335H10.2916C10.4352 10.8335 10.573 10.7764 10.6746 10.6748C10.7762 10.5733 10.8333 10.4355 10.8333 10.2918V8.12516C10.8333 7.82601 11.0758 7.5835 11.3749 7.5835C11.6741 7.5835 11.9166 7.82601 11.9166 8.12516V10.2918C11.9166 10.7228 11.7454 11.1361 11.4406 11.4409C11.1359 11.7456 10.7226 11.9168 10.2916 11.9168H2.70825C2.27727 11.9168 1.86395 11.7456 1.5592 11.4409C1.25446 11.1361 1.08325 10.7228 1.08325 10.2918V8.12516C1.08325 7.82601 1.32576 7.5835 1.62492 7.5835Z" fill="black"/>
<path fill-rule="evenodd" clip-rule="evenodd" d="M6.11698 1.24215C6.32852 1.03061 6.67148 1.03061 6.88302 1.24215L9.59135 3.95048C9.80288 4.16201 9.80288 4.50498 9.59135 4.71651C9.37982 4.92805 9.03685 4.92805 8.82532 4.71651L6.5 2.39119L4.17468 4.71651C3.96315 4.92805 3.62018 4.92805 3.40865 4.71651C3.19712 4.50498 3.19712 4.16201 3.40865 3.95048L6.11698 1.24215Z" fill="black"/>
<path fill-rule="evenodd" clip-rule="evenodd" d="M6.49992 1.0835C6.79907 1.0835 7.04158 1.32601 7.04158 1.62516V8.12516C7.04158 8.42432 6.79907 8.66683 6.49992 8.66683C6.20076 8.66683 5.95825 8.42432 5.95825 8.12516V1.62516C5.95825 1.32601 6.20076 1.0835 6.49992 1.0835Z" fill="black"/>
</svg>
