<?xml version="1.0" encoding="utf-8"?>
<!-- Generator: Adobe Illustrator 26.5.0, SVG Export Plug-In . SVG Version: 6.00 Build 0)  -->
<svg version="1.1" id="Ebene_1" xmlns="http://www.w3.org/2000/svg" xmlns:xlink="http://www.w3.org/1999/xlink" x="0px" y="0px"
	 viewBox="0 0 512 512" style="enable-background:new 0 0 512 512;" xml:space="preserve">
<style type="text/css">
	.st0{fill:#FFFFFF;}
</style>
<path d="M301,181h30v150h-30V181z M256,0C115.4,0,0,115.4,0,256s115.4,256,256,256s256-115.4,256-256S396.6,0,256,0z M241,361h-90
	V151h90V361z M361,361h-90V151h90V361z M181,181h30v150h-30V181z"/>
<g>
	<path class="st0" d="M361,361V151h-90v210H361z M301,181h30v150h-30V181z"/>
	<path class="st0" d="M241,361V151h-90v210H241z M181,181h30v150h-30V181z"/>
</g>
</svg>
