<?xml version="1.0" encoding="utf-8"?>
<!-- Generator: Adobe Illustrator 26.5.0, SVG Export Plug-In . SVG Version: 6.00 Build 0)  -->
<svg version="1.1" id="Ebene_1" xmlns="http://www.w3.org/2000/svg" xmlns:xlink="http://www.w3.org/1999/xlink" x="0px" y="0px"
	 viewBox="0 0 512 512" style="enable-background:new 0 0 512 512;" xml:space="preserve">
<style type="text/css">
	.st0{fill:#FFFFFF;}
</style>
<path d="M121,211h30v90h-30V211z"/>
<path d="M256,0C115.4,0,0,115.4,0,256s115.4,256,256,256s256-115.4,256-256S396.6,0,256,0z M301,436L161,331H91V181h70L301,76V436z
	 M317.8,287.8c8.5-8.5,13.2-19.8,13.2-31.8s-4.7-23.3-13.2-31.8L339,203c14.2,14.1,22,33,22,53s-7.8,38.9-22,53L317.8,287.8z
	 M381.5,351.5l-21.2-21.2c40.9-40.9,40.9-107.6,0-148.5l21.2-21.2C434.1,213.2,434.1,298.8,381.5,351.5z"/>
<path d="M181,308.5l90,67.5V136l-90,67.5V308.5z"/>
<g>
	<path class="st0" d="M381.5,160.5l-21.2,21.2c40.9,40.9,40.9,107.6,0,148.5l21.2,21.2C434.1,298.8,434.1,213.2,381.5,160.5z"/>
	<path class="st0" d="M339,309c14.2-14.1,22-33,22-53s-7.8-38.9-22-53l-21.2,21.2c8.5,8.5,13.2,19.8,13.2,31.8s-4.7,23.3-13.2,31.8
		L339,309z"/>
	<path class="st0" d="M91,181v150h70l140,105V76L161,181H91z M151,301h-30v-90h30V301z M181,203.5l90-67.5v240l-90-67.5V203.5z"/>
</g>
</svg>
