<svg width="160" height="26" viewBox="0 0 160 26" fill="none" xmlns="http://www.w3.org/2000/svg">
<path d="M153.741 14.5119C153.003 13.6565 153.003 12.4928 153.741 11.6374L158.425 6.23644C160.62 3.70009 158.523 0.0795898 154.853 0.0795898H138.33C135.87 0.0795898 133.873 1.80032 133.873 3.92886V22.1507C133.873 24.2793 135.87 26 138.33 26H138.99C140.387 26 141.716 25.4331 142.552 24.4683L144.52 22.2104C145.701 20.8478 148.073 20.8478 149.254 22.2104L151.222 24.4683C152.068 25.4331 153.387 26 154.784 26C157.421 26 159.252 24.1301 159.252 22.1309C159.252 21.355 158.976 20.5494 158.356 19.8432L153.741 14.5119ZM144.619 11.1599C142.513 11.1599 140.81 9.71769 140.81 7.93728C140.81 6.15687 142.513 4.71463 144.619 4.71463C146.724 4.71463 148.427 6.15687 148.427 7.93728C148.427 9.71769 146.715 11.1599 144.619 11.1599Z" fill="#000100"/>
<path d="M66.8084 8.33512C65.6472 9.5088 64.9289 11.1301 64.9092 12.9105C64.8797 16.5409 67.8712 19.505 71.4631 19.505H76.1177C77.8694 19.505 79.2962 20.9373 79.2962 22.7177C79.2962 24.4881 77.8792 25.9304 76.1177 25.9304H57.8731C55.5409 25.9304 53.6416 24.0207 53.6416 21.6534V4.27697C53.6416 1.91966 55.531 0 57.8731 0H76.1177C77.8694 0 79.2962 1.43229 79.2962 3.2127C79.2962 4.98317 77.8792 6.4254 76.1177 6.4254H71.3843C69.6032 6.4254 67.9795 7.15149 66.8084 8.33512Z" fill="#000100"/>
<path d="M101.034 15.785L105.226 20.7383C107.037 22.8868 105.305 25.9403 102.274 25.9403C100.05 25.9403 97.9639 25.0153 96.6256 23.4537L95.9368 22.6381C94.5689 21.0268 91.8332 21.0268 90.4653 22.6381L89.1664 24.1699C88.2118 25.2839 86.716 25.9503 85.1317 25.9503H84.8758C82.4452 25.9503 80.4771 24.2096 80.4771 22.0612V3.88906C80.4771 1.74063 82.4452 0 84.8758 0H85.3974C86.9817 0 88.4775 0.656465 89.4321 1.78041L90.4752 3.00383C91.843 4.61515 94.5787 4.61515 95.9466 3.00383L96.3796 2.49656C97.7179 0.92502 99.8041 0.00994629 102.028 0.00994629H102.343C105.374 0.00994629 107.106 3.0635 105.295 5.21194L101.054 10.2249C99.6369 11.8661 99.6368 14.1339 101.034 15.785Z" fill="#000100"/>
<path d="M25.6546 20.6389C25.6546 23.5631 23.3126 25.9403 20.4096 25.9403H5.24508C2.35192 25.9403 0 23.5731 0 20.6389V5.30146C0 2.3772 2.34208 0 5.24508 0H6.09138C8.98454 0 11.3365 2.36725 11.3365 5.30146V10.036C11.3365 12.9602 13.6785 15.3374 16.5815 15.3374H20.4194C23.3126 15.3374 25.6546 17.7047 25.6546 20.6389Z" fill="#000100"/>
<path d="M39.6481 8.42446C39.6481 9.6976 40.6715 10.732 41.9311 10.732H47.9831C49.2427 10.732 50.2662 11.7665 50.2662 13.0396C50.2662 14.3128 49.2427 15.3472 47.9831 15.3472H41.9311C40.6715 15.3472 39.6481 16.3816 39.6481 17.6548C39.6481 18.9279 40.6715 19.9623 41.9311 19.9623H49.5183C51.1518 19.9623 52.4803 21.3051 52.4803 22.9562C52.4803 24.6073 51.1518 25.9501 49.5183 25.9501H30.9489C28.6757 25.9501 26.8257 24.0802 26.8257 21.7825V4.17733C26.8257 1.8797 28.6757 0.00976562 30.9489 0.00976562H49.5084C51.142 0.00976562 52.4705 1.35254 52.4705 3.00365V3.13295C52.4705 4.78406 51.142 6.12683 49.5084 6.12683H41.9213C40.6715 6.12683 39.6481 7.15131 39.6481 8.42446Z" fill="#000100"/>
<path d="M119.938 8.42446C119.938 9.6976 120.961 10.732 122.221 10.732H128.273C129.533 10.732 130.556 11.7665 130.556 13.0396C130.556 14.3128 129.533 15.3472 128.273 15.3472H122.221C120.961 15.3472 119.938 16.3816 119.938 17.6548C119.938 18.9279 120.961 19.9623 122.221 19.9623H129.808C131.442 19.9623 132.77 21.3051 132.77 22.9562C132.77 24.6073 131.442 25.9501 129.808 25.9501H111.249C108.976 25.9501 107.125 24.0802 107.125 21.7825V4.17733C107.125 1.8797 108.976 0.00976562 111.249 0.00976562H129.808C131.442 0.00976562 132.77 1.35254 132.77 3.00365V3.13295C132.77 4.78406 131.442 6.12683 129.808 6.12683H122.221C120.961 6.12683 119.938 7.15131 119.938 8.42446Z" fill="#000100"/>
</svg>
