<?xml version="1.0" encoding="utf-8"?>
<!-- Generator: Adobe Illustrator 27.0.0, SVG Export Plug-In . SVG Version: 6.00 Build 0)  -->
<svg version="1.1" id="Ebene_3" xmlns="http://www.w3.org/2000/svg" xmlns:xlink="http://www.w3.org/1999/xlink" x="0px" y="0px"
	 viewBox="0 0 326 141.8" style="enable-background:new 0 0 326 141.8;" xml:space="preserve">
<g>
	<path d="M284.8,79l-1.6,1.3l-1.8,1.1c-0.4,0.3-0.8,0.5-2.2,0.5c-3.7,0-8.5-3.1-14.7-9.4l-22.2-22.4l-0.7-12.4l-17-17.1h-11.6
		L192.4,0h-2.2h-12.6h-0.1v21.3c-5.4-1.9-10.6-2.9-15.7-2.9c-4.6,0-13.5,0-14.4,17c-15.2-10.6-29.7-17-39.8-17
		c-3.3,0-11,0-13.5,11.9l-9.2-10.5l-1.2-0.4c-2.2-0.7-4.4-1-6.3-1c-1.9,0-5.8,0-8.1,5.4L66,20.6H51.2l0.3,4.6l-4.5-4.6H35.3L14.9,0
		H0v39.2l14.7,14.7v7.9l17,17.1h8l37,37.1c17,17.1,31.8,25.8,44,25.8c3.6,0,6.9-1.1,8.8-3l0.2-0.2l1.1,1.1h14.9l0,0h1.3v-18.2
		c17.2,12.4,34.2,20.4,45.1,20.4c5,0,13.1,0,14.5-15.3c12,9.4,24.4,15.3,33.1,15.3c2.9,0,7.9,0,10.5-7.1c2,1.6,4,3,6,4.4l0.9,0.6
		h14.6v-8.4c9.8,7,18.7,10.6,26.5,10.6c3.6,0,6.9-1.1,8.8-3l18.9-18.6L284.8,79z"/>
</g>
</svg>
