<svg id="Ebene_1" data-name="Ebene 1" xmlns="http://www.w3.org/2000/svg" viewBox="0 0 283.46 283.46"><defs><style>.cls-1{fill:#009cdd;}</style></defs><title>instagram_blue</title><path class="cls-1" d="M206.78,155.9A50.88,50.88,0,1,1,106.7,143.18H92.3v70a6.37,6.37,0,0,0,6.37,6.36H213.14a6.37,6.37,0,0,0,6.37-6.36v-70h-14.4A50.81,50.81,0,0,1,206.78,155.9Z" transform="translate(-14.17 -14.17)"/><path class="cls-1" d="M155.9,187.7a31.8,31.8,0,1,0-31.8-31.8A31.81,31.81,0,0,0,155.9,187.7Z" transform="translate(-14.17 -14.17)"/><path class="cls-1" d="M213.14,92.31H194.07a6.35,6.35,0,0,0-6.36,6.35v19.09a6.35,6.35,0,0,0,6.36,6.35h19.07a6.36,6.36,0,0,0,6.37-6.35V98.66A6.36,6.36,0,0,0,213.14,92.31Z" transform="translate(-14.17 -14.17)"/><path class="cls-1" d="M155.91,14.17A141.74,141.74,0,1,0,297.64,155.91,141.74,141.74,0,0,0,155.91,14.17ZM238.58,219.5a19.07,19.07,0,0,1-19.07,19.08H92.3A19.07,19.07,0,0,1,73.23,219.5V92.31A19.07,19.07,0,0,1,92.3,73.23H219.51a19.07,19.07,0,0,1,19.07,19.08Z" transform="translate(-14.17 -14.17)"/></svg>