<svg id="Ebene_1" data-name="Ebene 1" xmlns="http://www.w3.org/2000/svg" viewBox="0 0 262.58 262.58"><path d="M215.33,111a25.2,25.2,0,0,0-14.47-14.47c-2.68-1-6.72-2.28-14.15-2.62-8-.37-10.45-.45-30.8-.45s-22.77.08-30.81.45c-7.43.34-11.47,1.58-14.15,2.62A25.2,25.2,0,0,0,96.48,111c-1,2.69-2.28,6.72-2.62,14.15-.37,8-.45,10.45-.45,30.81s.08,22.76.45,30.8c.34,7.43,1.58,11.47,2.62,14.15A25.2,25.2,0,0,0,111,215.33c2.68,1,6.72,2.28,14.15,2.62,8,.37,10.45.45,30.81.45s22.76-.08,30.8-.45c7.43-.34,11.47-1.58,14.15-2.62a25.2,25.2,0,0,0,14.47-14.47c1-2.68,2.28-6.72,2.62-14.15.37-8,.45-10.45.45-30.8s-.08-22.77-.45-30.81C217.61,117.67,216.37,113.64,215.33,111Zm-59.42,84.1a39.15,39.15,0,1,1,39.14-39.14A39.15,39.15,0,0,1,155.91,195.05Zm40.69-70.69a9.15,9.15,0,1,1,9.14-9.14A9.14,9.14,0,0,1,196.6,124.36Z" transform="translate(-24.62 -24.62)"/><path d="M155.91,24.62A131.29,131.29,0,1,0,287.19,155.91,131.29,131.29,0,0,0,155.91,24.62Zm75.76,162.71c-.37,8.12-1.65,13.66-3.54,18.51a39,39,0,0,1-22.29,22.29c-4.85,1.89-10.39,3.17-18.51,3.54s-10.72.46-31.42.46-23.3-.08-31.43-.46S110.82,230,106,228.13a39,39,0,0,1-22.29-22.29,56.08,56.08,0,0,1-3.54-18.51c-.37-8.13-.46-10.72-.46-31.42s.09-23.3.46-31.43A56.08,56.08,0,0,1,83.68,106,39,39,0,0,1,106,83.68a56.08,56.08,0,0,1,18.51-3.54c8.13-.37,10.72-.46,31.43-.46s23.29.09,31.42.46a56.08,56.08,0,0,1,18.51,3.54A39,39,0,0,1,228.13,106c1.89,4.85,3.17,10.39,3.54,18.51s.46,10.72.46,31.43S232.05,179.2,231.67,187.33Z" transform="translate(-24.62 -24.62)"/><circle cx="131.29" cy="131.29" r="25.41"/></svg>