<svg id="Ebene_1" data-name="Ebene 1" xmlns="http://www.w3.org/2000/svg" viewBox="0 0 283.46 283.46"><defs><style>.cls-1{fill:#fff;}</style></defs><title>twitter_white</title><path class="cls-1" d="M155.91,14.17A141.74,141.74,0,1,0,297.64,155.91,141.74,141.74,0,0,0,155.91,14.17Zm72.83,115.1c.07,1.45.1,2.92.1,4.39,0,44.83-34.12,96.52-96.52,96.52a96,96,0,0,1-52-15.24,69.61,69.61,0,0,0,8.09.47,68.06,68.06,0,0,0,42.13-14.52,34,34,0,0,1-31.69-23.56,34,34,0,0,0,15.32-.58A33.94,33.94,0,0,1,87,143.49v-.43a33.69,33.69,0,0,0,15.37,4.24A33.94,33.94,0,0,1,91.83,102a96.31,96.31,0,0,0,69.92,35.45,33.95,33.95,0,0,1,57.81-30.95,67.75,67.75,0,0,0,21.54-8.23,34,34,0,0,1-14.91,18.77,67.72,67.72,0,0,0,19.48-5.34A69,69,0,0,1,228.74,129.27Z" transform="translate(-14.17 -14.17)"/></svg>