<svg id="Ebene_1" data-name="Ebene 1" xmlns="http://www.w3.org/2000/svg" viewBox="0 0 141.73 141.73"><path d="M63.25,82.68,82.94,70.87C82.45,70.42,63.66,59.14,63.25,59Z"/><path d="M70.87,0a70.87,70.87,0,1,0,70.86,70.87A70.87,70.87,0,0,0,70.87,0Zm37.66,79a1.72,1.72,0,0,0-.1.39c-.16,1.86-.3,3.73-.48,5.59a28.13,28.13,0,0,1-.82,4.84,9.34,9.34,0,0,1-6.95,7.07,24.06,24.06,0,0,1-3.6.55c-1.77.19-3.54.33-5.32.46-1,.07-2.09.09-3.14.15a2.41,2.41,0,0,0-.43.1H54.14a4.15,4.15,0,0,0-.48-.11c-2.41-.16-4.83-.28-7.23-.49-1.51-.13-3-.32-4.51-.6a9.37,9.37,0,0,1-6.65-5,14.55,14.55,0,0,1-1.38-5c-.16-1.06-.28-2.13-.38-3.19-.12-1.31-.28-2.61-.29-3.92,0-4.8,0-9.59,0-14.39a65.31,65.31,0,0,1,.31-7.91,42.33,42.33,0,0,1,.85-5.49,9.66,9.66,0,0,1,6.92-7.37,31.19,31.19,0,0,1,5.78-.81c.74-.07,1.49-.11,2.24-.15,1.16-.07,2.32-.2,3.48-.2q17.76,0,35.52,0c1,0,2,.06,3,.14,1.66.12,3.32.25,5,.45a28.67,28.67,0,0,1,3.82.61,9.27,9.27,0,0,1,6.92,6.82,31.48,31.48,0,0,1,1,5.7c.16,1.55.25,3.11.38,4.67a1.86,1.86,0,0,0,.1.39Z"/></svg>