<svg id="Ebene_1" data-name="Ebene 1" xmlns="http://www.w3.org/2000/svg" viewBox="0 0 46.78 46.78"><defs><style>.cls-1,.cls-2{fill:none;stroke:#222221;stroke-width:1.5px;}.cls-1{stroke-miterlimit:10;}.cls-2{stroke-linecap:round;stroke-linejoin:round;}</style></defs><title>contactform</title><rect class="cls-1" x="0.75" y="0.75" width="45.28" height="45.28"/><path class="cls-2" d="M46.69,23.85v-4.6H24.16a.7.7,0,0,0-.7.7V49.17a.7.7,0,0,0,.7.7H46a.7.7,0,0,0,.7-.7V31.74" transform="translate(-12.04 -12.04)"/><line class="cls-2" x1="15.6" y1="25.13" x2="21.7" y2="25.13"/><line class="cls-2" x1="15.6" y1="28.59" x2="21.12" y2="28.59"/><line class="cls-2" x1="26.02" y1="28.59" x2="30.77" y2="28.59"/><line class="cls-2" x1="15.6" y1="32.06" x2="24.61" y2="32.06"/><path class="cls-2" d="M34.19,28.47a2.28,2.28,0,1,0-3.55,0,.6.6,0,0,1-.2.91,4.22,4.22,0,0,0-2.26,3.12.62.62,0,0,0,.61.7H36a.61.61,0,0,0,.61-.7,4.21,4.21,0,0,0-2.25-3.12A.59.59,0,0,1,34.19,28.47Z" transform="translate(-12.04 -12.04)"/><path class="cls-2" d="M37.74,40.64l-4,.66a.49.49,0,0,1-.56-.56l.66-4L47.73,22.81a.48.48,0,0,1,.68,0l3.24,3.24a.49.49,0,0,1,0,.69Z" transform="translate(-12.04 -12.04)"/><rect class="cls-2" x="44.56" y="26.07" width="5.55" height="2.1" transform="translate(21 -37.57) rotate(45)"/><line class="cls-2" x1="22.1" y1="24.35" x2="26.02" y2="28.27"/></svg>