<svg id="Ebene_1" data-name="Ebene 1" xmlns="http://www.w3.org/2000/svg" viewBox="0 0 53.25 26.51"><defs><style>.cls-1{fill:none;stroke:#000;stroke-linecap:round;stroke-linejoin:round;}</style></defs><path class="cls-1" d="M40.55,33.8a7.37,7.37,0,0,0,1.14-6.07A6.41,6.41,0,0,0,37.45,23c-4.2-1.29-8,2.17-8,6.61a7.23,7.23,0,0,0,1.32,4.2,1.93,1.93,0,0,1-.45,2.79A12.72,12.72,0,0,0,24,46.7a1.21,1.21,0,0,0,1.12,1.38H46.2a1.21,1.21,0,0,0,1.13-1.38,12.76,12.76,0,0,0-6.25-10.13A1.94,1.94,0,0,1,40.55,33.8Z" transform="translate(-8.81 -22.18)"/><path class="cls-1" d="M26.06,40.76a9.64,9.64,0,0,0-2.65-2.2A1.57,1.57,0,0,1,23,36.27a6.1,6.1,0,0,0,.94-5,5.29,5.29,0,0,0-3.5-3.95c-3.48-1.06-6.63,1.8-6.63,5.46a6,6,0,0,0,1.12,3.52,1.57,1.57,0,0,1-.44,2.29,10.51,10.51,0,0,0-5.14,8.12,1.21,1.21,0,0,0,1.13,1.4H28.63" transform="translate(-8.81 -22.18)"/><path class="cls-1" d="M42.23,48.19H60.42a1.22,1.22,0,0,0,1.13-1.41,10.5,10.5,0,0,0-5.15-8.11,1.59,1.59,0,0,1-.43-2.3,6.12,6.12,0,0,0,.94-5,5.28,5.28,0,0,0-3.51-4c-3.48-1.07-6.63,1.79-6.63,5.46a6,6,0,0,0,1.12,3.51,1.59,1.59,0,0,1-.43,2.3,9.52,9.52,0,0,0-2.13,1.62" transform="translate(-8.81 -22.18)"/><path class="cls-1" d="M30.79,33.8a1.91,1.91,0,0,1-.48,2.75A12.92,12.92,0,0,0,24,48.08" transform="translate(-8.81 -22.18)"/></svg>