<svg id="Ebene_1" data-name="Ebene 1" xmlns="http://www.w3.org/2000/svg" viewBox="0 0 45.65 46"><defs><style>.cls-1{fill:none;stroke:#000;stroke-linecap:round;stroke-linejoin:round;}</style></defs><path class="cls-1" d="M53.72,35.49a18.45,18.45,0,0,0-.22-2.8A1,1,0,0,1,54,31.62l3.09-1.52a1,1,0,0,0,.45-1.34l-3.3-6.7a1,1,0,0,0-1.36-.44L50.1,23.1a1,1,0,0,1-1.19-.21,20.21,20.21,0,0,0-7.49-4.78,1,1,0,0,1-.67-.94V13.93a1,1,0,0,0-1-1h-9a1,1,0,0,0-1,1v3.32a1,1,0,0,1-.57.9A28,28,0,0,0,21.8,22.9a1,1,0,0,1-1.19.2l-2.84-1.48a1,1,0,0,0-1.36.46l-3.2,6.68a1,1,0,0,0,.46,1.33l3.15,1.53a1,1,0,0,1,.55,1.07,18.46,18.46,0,0,0-.2,2.8,17.28,17.28,0,0,0,.24,2.81,1,1,0,0,1-.54,1.07l-3.08,1.52a1,1,0,0,0-.46,1.34l3.3,6.68a1,1,0,0,0,1.38.43l2.6-1.43a1,1,0,0,1,1.2.19,28.34,28.34,0,0,0,7.37,4.74,1,1,0,0,1,.57.9v3.19a1,1,0,0,0,1,1h9a1,1,0,0,0,1-1V53.82a1,1,0,0,1,.67-.94,20.36,20.36,0,0,0,7.5-4.79,1,1,0,0,1,1.17-.21l3,1.5a1,1,0,0,0,1.36-.45l3.25-6.7a1,1,0,0,0-.46-1.33l-3.13-1.54a1,1,0,0,1-.54-1.06A19.89,19.89,0,0,0,53.72,35.49Z" transform="translate(-12.61 -12.43)"/><circle class="cls-1" cx="22.75" cy="22.96" r="9.05"/></svg>