<svg id="Ebene_1" data-name="Ebene 1" xmlns="http://www.w3.org/2000/svg" viewBox="0 0 120 120"><title>insta</title><path d="M92.4,70.86a21.54,21.54,0,1,1-43.07,0A21.22,21.22,0,0,1,50,65.48h-6.1V95.1a2.7,2.7,0,0,0,2.7,2.69H95.09a2.7,2.7,0,0,0,2.7-2.69V65.48H91.7A21.68,21.68,0,0,1,92.4,70.86Z" transform="translate(-10.87 -10.87)"/><path d="M70.87,84.33A13.47,13.47,0,1,0,57.4,70.86,13.47,13.47,0,0,0,70.87,84.33Z" transform="translate(-10.87 -10.87)"/><path d="M95.09,43.94H87a2.69,2.69,0,0,0-2.69,2.69v8.08A2.68,2.68,0,0,0,87,57.4h8.07a2.69,2.69,0,0,0,2.7-2.69V46.63A2.7,2.7,0,0,0,95.09,43.94Z" transform="translate(-10.87 -10.87)"/><path d="M70.87,10.87a60,60,0,1,0,60,60A60,60,0,0,0,70.87,10.87Zm35,86.92a8.08,8.08,0,0,1-8.08,8.08H43.94a8.07,8.07,0,0,1-8.07-8.08V43.94a8.07,8.07,0,0,1,8.07-8.07H97.79a8.07,8.07,0,0,1,8.08,8.07Z" transform="translate(-10.87 -10.87)"/></svg>