<svg id="Ebene_1" data-name="Ebene 1" xmlns="http://www.w3.org/2000/svg" viewBox="0 0 52.47 50.27"><defs><style>.cls-1{fill:none;stroke:#1d1d1b;stroke-linecap:round;stroke-linejoin:round;stroke-width:3.5px;}</style></defs><title>mosaic_icon_02</title><path class="cls-1" d="M59.64,35.31c0,2.42-4.26,4.15-5,6.34s1.67,6.16.29,8.05-5.84.82-7.75,2.21-2.22,6-4.49,6.69-5.14-2.78-7.57-2.78-5.37,3.49-7.56,2.78S25,53.28,23.1,51.91s-6.37-.3-7.76-2.21,1-5.78.3-8.05-5-3.92-5-6.34,4.26-4.15,5-6.35-1.67-6.16-.29-8,5.84-.81,7.75-2.2,2.22-6,4.49-6.69,5.14,2.77,7.56,2.77S40.53,11.3,42.72,12s2.6,5.31,4.49,6.69,6.36.3,7.75,2.2-1,5.79-.29,8.06S59.64,32.88,59.64,35.31Z" transform="translate(-8.92 -10.17)"/></svg>