<svg id="Ebene_1" data-name="Ebene 1" xmlns="http://www.w3.org/2000/svg" viewBox="0 0 46.78 46.78"><defs><style>.cls-1,.cls-2{fill:none;stroke:#000;stroke-width:1.5px;}.cls-1{stroke-miterlimit:10;}.cls-2{stroke-linecap:round;stroke-linejoin:round;}</style></defs><title>pdf</title><rect class="cls-1" x="0.75" y="0.75" width="45.28" height="45.28"/><path d="M412.8,297h1.67c1.08,0,1.62.57,1.62,1.72v.4c0,1.14-.43,1.83-1.67,1.83h-.36v2.56H412.8Zm1.26,2.93h.2c.47,0,.58-.26.58-.8v-.45c0-.42-.1-.7-.52-.7h-.26Z" transform="translate(-397.74 -274.22)"/><path d="M416.64,297h1.54c1.34,0,1.8.61,1.8,2v2.44c0,1.12-.23,2.11-1.71,2.11h-1.63Zm1.26,5.5h.24c.49,0,.57-.32.57-.83v-2.91c0-.48-.11-.75-.58-.75h-.23Z" transform="translate(-397.74 -274.22)"/><path d="M420.67,297h2.7v1.11h-1.45v1.48h1.36v1.1h-1.36v2.82h-1.25Z" transform="translate(-397.74 -274.22)"/><path class="cls-2" d="M410.57,306.13v6.08a.7.7,0,0,0,.7.7h21.81a.7.7,0,0,0,.7-.7V289.92l-7.6-7.61H411.27a.7.7,0,0,0-.7.7v11.65" transform="translate(-397.74 -274.22)"/><path class="cls-2" d="M426.88,289.92h6.9l-7.6-7.61v6.91A.7.7,0,0,0,426.88,289.92Z" transform="translate(-397.74 -274.22)"/><rect class="cls-2" x="10.73" y="20.43" width="19.24" height="11.15" rx="1" ry="1"/></svg>