<svg id="Ebene_1" data-name="Ebene 1" xmlns="http://www.w3.org/2000/svg" viewBox="0 0 46.78 46.78"><defs><style>.cls-1{fill:none;stroke:#000;stroke-miterlimit:10;stroke-width:1.5px;}</style></defs><title>quote</title><rect class="cls-1" x="0.75" y="0.75" width="45.28" height="45.28"/><path class="cls-1" d="M42.6,46.37l1,1a9,9,0,0,0,5.62-5,13.4,13.4,0,0,0,1.32-6V31.19H40.16V38.4h4.73A12.84,12.84,0,0,1,42.6,46.37Z" transform="translate(-14.88 -14.88)"/><path class="cls-1" d="M28.41,46.37l1,1a9,9,0,0,0,5.62-5,13.41,13.41,0,0,0,1.33-6V31.19H26V38.4H30.7A12.84,12.84,0,0,1,28.41,46.37Z" transform="translate(-14.88 -14.88)"/></svg>