<svg id="Ebene_1" data-name="Ebene 1" xmlns="http://www.w3.org/2000/svg" viewBox="0 0 46.78 46.78"><defs><style>.cls-1{fill:none;stroke:#222221;stroke-miterlimit:10;stroke-width:1.5px;}</style></defs><title>shop</title><rect class="cls-1" x="0.75" y="0.75" width="45.28" height="45.28"/><path d="M18.14,34.64c0,.72.38,1.15.95,1.15A1,1,0,0,0,20,34.71c0-.84-.34-1.51-1.84-2.95a5.38,5.38,0,0,1-2.07-3.9,3,3,0,0,1,3.08-3,2.8,2.8,0,0,1,2.95,2.93v.85H20v-.74c0-.67-.34-1-.85-1a.85.85,0,0,0-.86,1c0,.72.36,1.33,1.76,2.68a5.66,5.66,0,0,1,2.16,4.17,3.05,3.05,0,0,1-3.18,3.13,2.88,2.88,0,0,1-3-3v-1h2.12Z" transform="translate(-7.67 -7.91)"/><path d="M27.77,32.16H26v5.43h-2.2V25H26v5h1.8V25H30V37.59H27.77Z" transform="translate(-7.67 -7.91)"/><path d="M31.78,28A3.07,3.07,0,0,1,35,24.82a3,3,0,0,1,3.11,3.09v6.71a3.06,3.06,0,0,1-3.18,3.15,3,3,0,0,1-3.12-3.09ZM34,34.64c0,.69.38,1.08,1,1.08s.94-.39.94-1.08V28c0-.67-.36-1.08-.94-1.08A1,1,0,0,0,34,28Z" transform="translate(-7.67 -7.91)"/><path d="M39.88,25H42.8a3,3,0,0,1,3.29,3.27v1.5a3.05,3.05,0,0,1-3.36,3.32h-.65v4.5h-2.2Zm2.2,6.12h.68c.72,0,1.12-.44,1.12-1.26V28.31c0-.83-.4-1.26-1.12-1.26h-.68Z" transform="translate(-7.67 -7.91)"/></svg>