<svg id="Ebene_1" data-name="Ebene 1" xmlns="http://www.w3.org/2000/svg" viewBox="0 0 46.78 46.78"><defs><style>.cls-1{fill:none;stroke:#000;stroke-miterlimit:10;stroke-width:1.5px;}</style></defs><rect class="cls-1" x="0.75" y="0.75" width="45.28" height="45.28"/><path id="Vimeo" class="cls-1" d="M33.23,12.35q-5.8-.19-7.85,6.5a5.36,5.36,0,0,1,2.06-.43q2.11,0,1.86,2.37A10.81,10.81,0,0,1,27.44,25c-1.17,1.83-2,2.75-2.62,2.75-.75,0-1.43-1.42-2.06-4.25q-.32-1.26-1.12-6.39-.75-4.76-4-4.44c-.91.08-2.28.92-4.11,2.5q-2,1.82-4,3.63l1.31,1.69A8.2,8.2,0,0,1,13,19.17c.95,0,1.85,1.5,2.68,4.5q1.11,4.14,2.24,8.26,1.68,4.51,4.11,4.51,3.93,0,9.6-7.38Q37.08,22,37.28,17.91C37.45,14.29,36.1,12.43,33.23,12.35Z" transform="translate(0 0)"/></svg>