<svg width="16" height="16" viewBox="0 0 16 16" fill="none" xmlns="http://www.w3.org/2000/svg">
<g clip-path="url(#clip0_210_4871)">
<path fill-rule="evenodd" clip-rule="evenodd" d="M9 4.66683C9.18409 4.66683 9.33333 4.51759 9.33333 4.3335C9.33333 4.1494 9.18409 4.00016 9 4.00016C8.81591 4.00016 8.66667 4.1494 8.66667 4.3335C8.66667 4.51759 8.81591 4.66683 9 4.66683ZM8 4.3335C8 3.78121 8.44772 3.3335 9 3.3335C9.55228 3.3335 10 3.78121 10 4.3335C10 4.88578 9.55228 5.3335 9 5.3335C8.44772 5.3335 8 4.88578 8 4.3335Z" fill="black"/>
<path fill-rule="evenodd" clip-rule="evenodd" d="M11.6667 7.33333C11.8508 7.33333 12.0001 7.18409 12.0001 7C12.0001 6.81591 11.8508 6.66667 11.6667 6.66667C11.4827 6.66667 11.3334 6.81591 11.3334 7C11.3334 7.18409 11.4827 7.33333 11.6667 7.33333ZM10.6667 7C10.6667 6.44772 11.1145 6 11.6667 6C12.219 6 12.6667 6.44772 12.6667 7C12.6667 7.55228 12.219 8 11.6667 8C11.1145 8 10.6667 7.55228 10.6667 7Z" fill="black"/>
<path fill-rule="evenodd" clip-rule="evenodd" d="M5.66675 5.33333C5.85084 5.33333 6.00008 5.18409 6.00008 5C6.00008 4.81591 5.85084 4.66667 5.66675 4.66667C5.48265 4.66667 5.33341 4.81591 5.33341 5C5.33341 5.18409 5.48265 5.33333 5.66675 5.33333ZM4.66675 5C4.66675 4.44772 5.11446 4 5.66675 4C6.21903 4 6.66675 4.44772 6.66675 5C6.66675 5.55228 6.21903 6 5.66675 6C5.11446 6 4.66675 5.55228 4.66675 5Z" fill="black"/>
<path fill-rule="evenodd" clip-rule="evenodd" d="M4.33325 8.66683C4.51735 8.66683 4.66659 8.51759 4.66659 8.3335C4.66659 8.1494 4.51735 8.00016 4.33325 8.00016C4.14916 8.00016 3.99992 8.1494 3.99992 8.3335C3.99992 8.51759 4.14916 8.66683 4.33325 8.66683ZM3.33325 8.3335C3.33325 7.78121 3.78097 7.3335 4.33325 7.3335C4.88554 7.3335 5.33325 7.78121 5.33325 8.3335C5.33325 8.88578 4.88554 9.3335 4.33325 9.3335C3.78097 9.3335 3.33325 8.88578 3.33325 8.3335Z" fill="black"/>
<path fill-rule="evenodd" clip-rule="evenodd" d="M0.666748 7.99984C0.666748 3.96498 3.96522 0.666504 8.00008 0.666504C11.9337 0.666504 15.3076 3.56772 15.3281 7.22278L15.3281 7.2265C15.3281 9.62885 13.3601 11.5958 10.9581 11.5958H9.62741L9.61593 11.5957C9.55868 11.5948 9.50181 11.6053 9.44871 11.6268C9.39561 11.6482 9.34738 11.6801 9.30689 11.7206C9.26639 11.7611 9.23446 11.8094 9.21301 11.8625C9.19155 11.9156 9.18099 11.9724 9.18198 12.0297L9.18208 12.0412C9.18208 12.1974 9.22246 12.2636 9.278 12.319C9.28776 12.3287 9.29722 12.3387 9.30635 12.349C9.57125 12.6479 9.76541 13.0663 9.76541 13.5412C9.76541 14.5205 9.00224 15.3332 8.00008 15.3332C3.96522 15.3332 0.666748 12.0347 0.666748 7.99984ZM8.00008 1.99984C4.7016 1.99984 2.00008 4.70136 2.00008 7.99984C2.00008 11.2983 4.7016 13.9998 8.00008 13.9998C8.23259 13.9998 8.43208 13.8178 8.43208 13.5412C8.43208 13.4377 8.38986 13.3301 8.31771 13.244C8.00097 12.9185 7.85 12.5098 7.84876 12.0469C7.84548 11.8127 7.88902 11.5801 7.97682 11.3628C8.06534 11.1438 8.19704 10.9449 8.36408 10.7778C8.53112 10.6108 8.73007 10.4791 8.94909 10.3906C9.16611 10.3029 9.39843 10.2593 9.63245 10.2625H10.9581C12.6234 10.2625 13.9937 8.89319 13.9947 7.22838C13.978 4.44686 11.3471 1.99984 8.00008 1.99984Z" fill="black"/>
</g>
<defs>
<clipPath id="clip0_210_4871">
<rect width="16" height="16" fill="white"/>
</clipPath>
</defs>
</svg>
