<svg width="16" height="16" viewBox="0 0 16 16" fill="none" xmlns="http://www.w3.org/2000/svg">
<path fill-rule="evenodd" clip-rule="evenodd" d="M13.2521 2.74078C13.1007 2.67877 12.9384 2.6475 12.7748 2.6488C12.6112 2.6501 12.4495 2.68394 12.2991 2.74835C12.1487 2.81276 12.0126 2.90645 11.8988 3.02396L11.8911 3.0318L6.51107 8.40514C6.25056 8.66532 5.82845 8.66506 5.56826 8.40455C5.30807 8.14404 5.30833 7.72193 5.56885 7.46174L10.9452 2.09201C11.1813 1.84944 11.463 1.65594 11.7742 1.52268C12.0872 1.38864 12.4238 1.31822 12.7642 1.31551C13.1047 1.31281 13.4423 1.37787 13.7574 1.50692C14.0725 1.63597 14.3588 1.82643 14.5995 2.06719C14.8403 2.30795 15.0308 2.59422 15.1598 2.9093C15.2889 3.22439 15.3539 3.562 15.3512 3.90248C15.3485 4.24297 15.2781 4.5795 15.1441 4.8925C15.0108 5.20362 14.8174 5.4853 14.5749 5.72133L9.20528 11.1043C8.94525 11.3649 8.52314 11.3655 8.26247 11.1054C8.0018 10.8454 8.00128 10.4233 8.2613 10.1626L13.6346 4.77595L13.6428 4.76794C13.7603 4.6541 13.854 4.51802 13.9184 4.36762C13.9828 4.21721 14.0166 4.0555 14.0179 3.89189C14.0192 3.72829 13.988 3.56606 13.926 3.41465C13.8639 3.26324 13.7724 3.12569 13.6567 3.01C13.541 2.89431 13.4035 2.80279 13.2521 2.74078Z" fill="black"/>
<path fill-rule="evenodd" clip-rule="evenodd" d="M2.04661 11.9729C2.04692 10.4959 3.23429 9.29346 4.71327 9.29346V9.96012L4.71548 9.29346C5.06655 9.29463 5.41395 9.36493 5.73785 9.50035C6.06175 9.63578 6.3558 9.83367 6.60322 10.0827C6.85064 10.3318 7.04657 10.6272 7.17984 10.952C7.31296 11.2764 7.38095 11.6238 7.37994 11.9745C7.37994 11.9749 7.37994 11.9753 7.37994 11.9757L6.71327 11.9735H7.37994C7.37994 11.9738 7.37994 11.9742 7.37994 11.9745C7.37938 13.8312 5.88543 15.3335 4.04661 15.3335C2.77671 15.3335 1.67514 14.5719 0.90574 13.7887C0.906674 13.7897 0.907606 13.7906 0.908534 13.7915L1.37994 13.3201L0.90423 13.7872C0.904733 13.7877 0.905236 13.7882 0.90574 13.7887C0.8361 13.7185 0.751197 13.6102 0.703884 13.4594C0.651838 13.2935 0.660359 13.1233 0.715992 12.9724C0.808745 12.7207 1.00928 12.5846 1.07895 12.5383C1.17496 12.4746 1.28281 12.4209 1.36552 12.381C1.41282 12.3581 1.45014 12.3406 1.48574 12.3238C1.53035 12.3028 1.57226 12.2831 1.62773 12.2559C1.80592 12.1684 1.92751 12.0947 2.00181 12.025C2.03233 11.9963 2.04352 11.9785 2.04661 11.9729ZM2.04661 11.9729C2.04661 11.9731 2.04661 11.9733 2.04661 11.9735C2.04661 11.9741 2.04672 11.9739 2.04685 11.9735C2.04705 11.9728 2.04729 11.9716 2.0472 11.9717C2.04705 11.972 2.04685 11.9724 2.04661 11.9729ZM4.71216 10.6268C3.97851 10.6274 3.37994 11.2244 3.37994 11.9735C3.37994 12.4325 3.1551 12.7711 2.91431 12.9971C2.75626 13.1455 2.57583 13.2608 2.41442 13.3497C2.94005 13.7512 3.50277 14.0001 4.04661 14.0001C5.14077 14.0001 6.04661 13.1029 6.04661 11.9735V11.9712H6.04661C6.04719 11.7953 6.01311 11.6209 5.94631 11.4581C5.87951 11.2953 5.7813 11.1473 5.65728 11.0224C5.53326 10.8976 5.38587 10.7984 5.22352 10.7305C5.06151 10.6628 4.88776 10.6275 4.71216 10.6268ZM1.81635 13.6492C1.81767 13.6483 1.81921 13.6473 1.82099 13.6462C1.80771 13.6568 1.80379 13.6575 1.81635 13.6492Z" fill="black"/>
</svg>
