<svg width="15" height="15" viewBox="0 0 15 15" fill="none" xmlns="http://www.w3.org/2000/svg">
<path fill-rule="evenodd" clip-rule="evenodd" d="M4.24556 1.12056C4.52077 0.845342 4.92173 0.625 5.375 0.625H9.6875C9.85326 0.625 10.0122 0.690848 10.1294 0.808058L12.9419 3.62056C13.0592 3.73777 13.125 3.89674 13.125 4.0625V10.25C13.125 10.7033 12.9047 11.1042 12.6294 11.3794C12.3542 11.6547 11.9533 11.875 11.5 11.875H5.375C4.92173 11.875 4.52077 11.6547 4.24556 11.3794C3.97034 11.1042 3.75 10.7033 3.75 10.25V2.25C3.75 1.79673 3.97034 1.39577 4.24556 1.12056ZM5.375 1.875C5.32827 1.875 5.22923 1.90466 5.12944 2.00444C5.02966 2.10423 5 2.20327 5 2.25V10.25C5 10.2967 5.02966 10.3958 5.12944 10.4956C5.22923 10.5953 5.32827 10.625 5.375 10.625H11.5C11.5467 10.625 11.6458 10.5953 11.7456 10.4956C11.8453 10.3958 11.875 10.2967 11.875 10.25V4.32138L9.42862 1.875H5.375Z" fill="black"/>
<path fill-rule="evenodd" clip-rule="evenodd" d="M1.875 4.125C2.22018 4.125 2.5 4.40482 2.5 4.75V12.75C2.5 12.7967 2.52966 12.8958 2.62944 12.9956C2.72923 13.0953 2.82827 13.125 2.875 13.125H9C9.34518 13.125 9.625 13.4048 9.625 13.75C9.625 14.0952 9.34518 14.375 9 14.375H2.875C2.42173 14.375 2.02077 14.1547 1.74556 13.8794C1.47034 13.6042 1.25 13.2033 1.25 12.75V4.75C1.25 4.40482 1.52982 4.125 1.875 4.125Z" fill="black"/>
<path fill-rule="evenodd" clip-rule="evenodd" d="M9.375 0.625C9.72018 0.625 10 0.904822 10 1.25V3.75H12.5C12.8452 3.75 13.125 4.02982 13.125 4.375C13.125 4.72018 12.8452 5 12.5 5H9.375C9.02982 5 8.75 4.72018 8.75 4.375V1.25C8.75 0.904822 9.02982 0.625 9.375 0.625Z" fill="black"/>
</svg>
