<svg width="17" height="17" viewBox="0 0 17 17" fill="none" xmlns="http://www.w3.org/2000/svg">
<path fill-rule="evenodd" clip-rule="evenodd" d="M2.12508 9.9165C2.51628 9.9165 2.83341 10.2336 2.83341 10.6248V13.4582C2.83341 13.646 2.90804 13.8262 3.04088 13.959C3.17372 14.0919 3.35389 14.1665 3.54175 14.1665H13.4584C13.6463 14.1665 13.8264 14.0919 13.9593 13.959C14.0921 13.8262 14.1667 13.646 14.1667 13.4582V10.6248C14.1667 10.2336 14.4839 9.9165 14.8751 9.9165C15.2663 9.9165 15.5834 10.2336 15.5834 10.6248V13.4582C15.5834 14.0218 15.3595 14.5623 14.961 14.9608C14.5625 15.3593 14.022 15.5832 13.4584 15.5832H3.54175C2.97816 15.5832 2.43766 15.3593 2.03915 14.9608C1.64063 14.5623 1.41675 14.0218 1.41675 13.4582V10.6248C1.41675 10.2336 1.73388 9.9165 2.12508 9.9165Z" fill="black"/>
<path fill-rule="evenodd" clip-rule="evenodd" d="M4.45747 6.58247C4.73409 6.30584 5.18258 6.30584 5.4592 6.58247L8.5 9.62327L11.5408 6.58247C11.8174 6.30584 12.2659 6.30584 12.5425 6.58247C12.8192 6.85909 12.8192 7.30758 12.5425 7.5842L9.00087 11.1259C8.72425 11.4025 8.27575 11.4025 7.99913 11.1259L4.45747 7.5842C4.18084 7.30758 4.18084 6.85909 4.45747 6.58247Z" fill="black"/>
<path fill-rule="evenodd" clip-rule="evenodd" d="M8.50008 1.4165C8.89128 1.4165 9.20841 1.73364 9.20841 2.12484V10.6248C9.20841 11.016 8.89128 11.3332 8.50008 11.3332C8.10888 11.3332 7.79175 11.016 7.79175 10.6248V2.12484C7.79175 1.73364 8.10888 1.4165 8.50008 1.4165Z" fill="black"/>
</svg>
