<svg width="16" height="16" viewBox="0 0 16 16" fill="none" xmlns="http://www.w3.org/2000/svg">
<path fill-rule="evenodd" clip-rule="evenodd" d="M3.33325 2.66683C3.15644 2.66683 2.98687 2.73707 2.86185 2.86209C2.73682 2.98712 2.66659 3.15668 2.66659 3.3335V12.6668C2.66659 12.8436 2.73682 13.0132 2.86185 13.1382C2.98687 13.2633 3.15644 13.3335 3.33325 13.3335H12.6666C12.8434 13.3335 13.013 13.2633 13.138 13.1382C13.263 13.0132 13.3333 12.8436 13.3333 12.6668V5.60964L10.3904 2.66683H3.33325ZM1.91904 1.91928C2.29411 1.54421 2.80282 1.3335 3.33325 1.3335H10.6666C10.8434 1.3335 11.013 1.40373 11.138 1.52876L14.4713 4.86209C14.5963 4.98712 14.6666 5.15669 14.6666 5.3335V12.6668C14.6666 13.1973 14.4559 13.706 14.0808 14.081C13.7057 14.4561 13.197 14.6668 12.6666 14.6668H3.33325C2.80282 14.6668 2.29411 14.4561 1.91904 14.081C1.54397 13.706 1.33325 13.1973 1.33325 12.6668V3.3335C1.33325 2.80306 1.54397 2.29436 1.91904 1.91928Z" fill="black"/>
<path fill-rule="evenodd" clip-rule="evenodd" d="M4 8.66667C4 8.29848 4.29848 8 4.66667 8H11.3333C11.7015 8 12 8.29848 12 8.66667V14C12 14.3682 11.7015 14.6667 11.3333 14.6667C10.9651 14.6667 10.6667 14.3682 10.6667 14V9.33333H5.33333V14C5.33333 14.3682 5.03486 14.6667 4.66667 14.6667C4.29848 14.6667 4 14.3682 4 14V8.66667Z" fill="black"/>
<path fill-rule="evenodd" clip-rule="evenodd" d="M4.66667 1.3335C5.03486 1.3335 5.33333 1.63197 5.33333 2.00016V4.66683H10C10.3682 4.66683 10.6667 4.96531 10.6667 5.3335C10.6667 5.70169 10.3682 6.00016 10 6.00016H4.66667C4.29848 6.00016 4 5.70169 4 5.3335V2.00016C4 1.63197 4.29848 1.3335 4.66667 1.3335Z" fill="black"/>
</svg>
