<svg width="16" height="16" viewBox="0 0 16 16" fill="none" xmlns="http://www.w3.org/2000/svg">
<path d="M8.15995 15.3332H7.86662C7.33329 15.3332 6.83329 15.1265 6.45329 14.7465C6.07329 14.3665 5.86662 13.8665 5.86662 13.3332V13.2132C5.86662 13.0998 5.83329 12.9798 5.77995 12.8798C5.71995 12.7798 5.63995 12.6932 5.53329 12.6332L5.24662 12.4665C5.04662 12.3532 4.78662 12.3532 4.57995 12.4665L4.45995 12.5332C4.01995 12.7865 3.47995 12.8598 2.96662 12.7198C2.45995 12.5798 2.01329 12.2465 1.75329 11.7865L1.59995 11.5398C1.33329 11.0732 1.25995 10.5398 1.39995 10.0198C1.53995 9.5065 1.86662 9.07317 2.32662 8.8065L2.41329 8.75317C2.52662 8.6865 2.60662 8.6065 2.66662 8.49984C2.72662 8.39984 2.75329 8.27984 2.75329 8.1665V7.81984C2.75329 7.7065 2.71995 7.59317 2.66662 7.49317C2.61995 7.39984 2.53329 7.31317 2.43329 7.25984L2.29995 7.17317C1.86662 6.91984 1.53995 6.49317 1.39995 5.97317C1.26662 5.45984 1.33329 4.91984 1.59995 4.45984L1.74662 4.2065C2.00662 3.75317 2.45329 3.41317 2.95995 3.27984C3.47329 3.13984 4.01329 3.21317 4.47329 3.47984L4.55329 3.51984C4.79995 3.65984 5.03995 3.6465 5.24662 3.5265L5.53329 3.3665C5.63329 3.3065 5.71995 3.21984 5.77995 3.11984C5.83329 3.01984 5.86662 2.89984 5.86662 2.7865V2.6665C5.86662 2.13317 6.07329 1.63317 6.45329 1.25317C6.82662 0.873171 7.33329 0.666504 7.86662 0.666504H8.15995C8.69328 0.666504 9.19328 0.873171 9.57329 1.25317C9.95329 1.63317 10.16 2.13317 10.16 2.6665V2.7865C10.16 2.89984 10.1933 3.01984 10.2466 3.11984C10.3066 3.21984 10.3866 3.3065 10.4933 3.35984L10.78 3.5265C10.98 3.63984 11.24 3.63984 11.4466 3.5265L11.5666 3.45984C12.0066 3.2065 12.5533 3.13317 13.0666 3.27317C13.58 3.41317 14.0133 3.73984 14.28 4.19984L14.4266 4.45317C14.6933 4.91317 14.7666 5.45317 14.6266 5.9665C14.4866 6.47984 14.16 6.91317 13.7 7.17984L13.6 7.2465C13.4866 7.31317 13.4066 7.39317 13.3466 7.49317C13.2866 7.59317 13.2533 7.71317 13.26 7.8265V8.15984C13.26 8.27984 13.2933 8.39317 13.3466 8.49984C13.4066 8.59984 13.4866 8.6865 13.5933 8.7465L13.6733 8.7865C14.1533 9.0665 14.4866 9.49984 14.6266 10.0132C14.7666 10.5265 14.6933 11.0665 14.4266 11.5265L14.2866 11.7798C14.0133 12.2465 13.5866 12.5798 13.0666 12.7132C12.56 12.8465 12.0066 12.7732 11.5533 12.5132L11.4733 12.4732C11.2333 12.3332 10.9933 12.3465 10.7866 12.4598L10.5 12.6265C10.3933 12.6865 10.3133 12.7732 10.2533 12.8732C10.1933 12.9732 10.1666 13.0865 10.1666 13.2065V13.3332C10.1666 13.8665 9.95995 14.3665 9.57995 14.7465C9.19328 15.1265 8.69328 15.3332 8.15995 15.3332ZM4.91329 11.0465C5.26662 11.0465 5.60662 11.1398 5.91329 11.3132L6.19995 11.4798C6.49995 11.6532 6.75329 11.9065 6.92662 12.2065C7.09995 12.5132 7.19328 12.8532 7.19328 13.2065V13.3332C7.19328 13.5132 7.25995 13.6798 7.38662 13.8065C7.51995 13.9332 7.68662 13.9998 7.86662 13.9998H8.15995C8.33995 13.9998 8.50662 13.9332 8.63329 13.8065C8.75995 13.6798 8.82662 13.5132 8.82662 13.3332V13.2132C8.82662 12.8665 8.91995 12.5198 9.09329 12.2132C9.26662 11.9065 9.51995 11.6598 9.82662 11.4798L10.1133 11.3132C10.72 10.9598 11.5066 10.9598 12.1133 11.3132L12.1933 11.3532C12.36 11.4532 12.5466 11.4732 12.72 11.4265C12.8933 11.3798 13.0333 11.2732 13.1266 11.1198L13.2666 10.8665C13.36 10.7065 13.38 10.5265 13.34 10.3532C13.2933 10.1865 13.18 10.0332 13.0266 9.9465L12.9466 9.9065C12.62 9.71984 12.3666 9.4665 12.1933 9.15984C12.02 8.85317 11.9266 8.5065 11.9266 8.15984V7.8265C11.9266 7.47984 12.02 7.1265 12.1933 6.8265C12.3666 6.51984 12.62 6.2665 12.9266 6.09317L13.02 6.03984C13.18 5.9465 13.2866 5.79984 13.3333 5.63317C13.38 5.4665 13.3533 5.27984 13.2666 5.1265L13.12 4.87317C13.0333 4.71984 12.8866 4.61317 12.7133 4.5665C12.5466 4.51984 12.36 4.5465 12.2066 4.63317L12.0866 4.69984C11.52 5.03317 10.7133 5.03984 10.1066 4.6865L9.81995 4.51984C9.51995 4.3465 9.26662 4.09317 9.09329 3.79317C8.91995 3.4865 8.82662 3.13984 8.82662 2.79317V2.6665C8.82662 2.49317 8.75328 2.31984 8.63329 2.19317C8.50662 2.07317 8.33328 1.99984 8.15995 1.99984H7.86662C7.69329 1.99984 7.51995 2.07317 7.39329 2.19317C7.27329 2.31984 7.19995 2.49317 7.19995 2.6665V2.7865C7.19995 3.13984 7.10662 3.47984 6.93328 3.7865C6.75995 4.0865 6.50662 4.33984 6.19995 4.51984L5.91329 4.67984C5.29995 5.03317 4.51329 5.03317 3.91329 4.67984L3.83329 4.63984C3.65995 4.53984 3.47995 4.51984 3.30662 4.5665C3.13995 4.6065 2.99329 4.71984 2.90662 4.87317L2.75329 5.1265C2.66662 5.27984 2.64662 5.45984 2.68662 5.63317C2.73329 5.8065 2.84662 5.9465 2.99995 6.03317L3.13329 6.11984C3.39995 6.27317 3.65329 6.51984 3.82662 6.8265C3.99995 7.13317 4.09995 7.47317 4.09995 7.81984V8.1665C4.09995 8.51317 4.01329 8.85984 3.83329 9.1665C3.65995 9.47317 3.40662 9.7265 3.09995 9.89984L3.01329 9.95317C2.84662 10.0465 2.73995 10.1932 2.69329 10.3665C2.64662 10.5398 2.67329 10.7198 2.75995 10.8732L2.90662 11.1265C2.99329 11.2798 3.13995 11.3932 3.31329 11.4398C3.48662 11.4865 3.66662 11.4598 3.81995 11.3732L3.93995 11.3065C4.21329 11.1398 4.55995 11.0465 4.91329 11.0465Z" fill="black"/>
<path d="M8.01335 10.6668C6.54001 10.6668 5.34668 9.4735 5.34668 8.00016C5.34668 6.52683 6.54001 5.3335 8.01335 5.3335C9.48668 5.3335 10.68 6.52683 10.68 8.00016C10.68 9.4735 9.48001 10.6668 8.01335 10.6668ZM8.01335 6.66683C7.28001 6.66683 6.68001 7.26683 6.68001 8.00016C6.68001 8.7335 7.28001 9.3335 8.01335 9.3335C8.74668 9.3335 9.34668 8.7335 9.34668 8.00016C9.34668 7.26683 8.74668 6.66683 8.01335 6.66683Z" fill="black"/>
</svg>
