<svg width="15" height="15" viewBox="0 0 15 15" fill="none" xmlns="http://www.w3.org/2000/svg">
<path fill-rule="evenodd" clip-rule="evenodd" d="M3.125 2.5C2.95924 2.5 2.80027 2.56585 2.68306 2.68306C2.56585 2.80027 2.5 2.95924 2.5 3.125V11.875C2.5 12.0408 2.56585 12.1997 2.68306 12.3169C2.80027 12.4342 2.95924 12.5 3.125 12.5H11.875C12.0408 12.5 12.1997 12.4342 12.3169 12.3169C12.4342 12.1997 12.5 12.0408 12.5 11.875V6.875C12.5 6.52982 12.7798 6.25 13.125 6.25C13.4702 6.25 13.75 6.52982 13.75 6.875V11.875C13.75 12.3723 13.5525 12.8492 13.2008 13.2008C12.8492 13.5525 12.3723 13.75 11.875 13.75H3.125C2.62772 13.75 2.15081 13.5525 1.79917 13.2008C1.44754 12.8492 1.25 12.3723 1.25 11.875V3.125C1.25 2.62772 1.44754 2.15081 1.79917 1.79917C2.15081 1.44754 2.62772 1.25 3.125 1.25H8.125C8.47018 1.25 8.75 1.52982 8.75 1.875C8.75 2.22018 8.47018 2.5 8.125 2.5H3.125Z" fill="black"/>
<path fill-rule="evenodd" clip-rule="evenodd" d="M4.20765 4.20765C4.50067 3.91462 4.8981 3.75 5.3125 3.75C5.7269 3.75 6.12433 3.91462 6.41735 4.20765C6.71038 4.50067 6.875 4.8981 6.875 5.3125C6.875 5.7269 6.71038 6.12433 6.41735 6.41735C6.12433 6.71038 5.7269 6.875 5.3125 6.875C4.8981 6.875 4.50067 6.71038 4.20765 6.41735C3.91462 6.12433 3.75 5.7269 3.75 5.3125C3.75 4.8981 3.91462 4.50067 4.20765 4.20765ZM5.3125 5C5.22962 5 5.15013 5.03292 5.09153 5.09153C5.03292 5.15013 5 5.22962 5 5.3125C5 5.39538 5.03292 5.47487 5.09153 5.53347C5.15013 5.59208 5.22962 5.625 5.3125 5.625C5.39538 5.625 5.47487 5.59208 5.53347 5.53347C5.59208 5.47487 5.625 5.39538 5.625 5.3125C5.625 5.22962 5.59208 5.15013 5.53347 5.09153C5.47487 5.03292 5.39538 5 5.3125 5Z" fill="black"/>
<path fill-rule="evenodd" clip-rule="evenodd" d="M9.55806 5.80806C9.80214 5.56398 10.1979 5.56398 10.4419 5.80806L13.5669 8.93306C13.811 9.17714 13.811 9.57286 13.5669 9.81694C13.3229 10.061 12.9271 10.061 12.6831 9.81694L10 7.13388L3.56694 13.5669C3.32286 13.811 2.92714 13.811 2.68306 13.5669C2.43898 13.3229 2.43898 12.9271 2.68306 12.6831L9.55806 5.80806Z" fill="black"/>
<path fill-rule="evenodd" clip-rule="evenodd" d="M11.875 0.625C12.2202 0.625 12.5 0.904822 12.5 1.25V5C12.5 5.34518 12.2202 5.625 11.875 5.625C11.5298 5.625 11.25 5.34518 11.25 5V1.25C11.25 0.904822 11.5298 0.625 11.875 0.625Z" fill="black"/>
<path fill-rule="evenodd" clip-rule="evenodd" d="M9.375 3.125C9.375 2.77982 9.65482 2.5 10 2.5H13.75C14.0952 2.5 14.375 2.77982 14.375 3.125C14.375 3.47018 14.0952 3.75 13.75 3.75H10C9.65482 3.75 9.375 3.47018 9.375 3.125Z" fill="black"/>
</svg>
