<svg width="15" height="15" viewBox="0 0 15 15" fill="none" xmlns="http://www.w3.org/2000/svg">
<g clip-path="url(#clip0_211_4888)">
<path fill-rule="evenodd" clip-rule="evenodd" d="M7.22049 0.690983C7.39645 0.603006 7.60355 0.603006 7.77951 0.690983L14.0295 3.81598C14.2412 3.92185 14.375 4.13827 14.375 4.375C14.375 4.61173 14.2412 4.82815 14.0295 4.93402L7.77951 8.05902C7.60355 8.14699 7.39645 8.14699 7.22049 8.05902L0.970491 4.93402C0.758751 4.82815 0.625 4.61173 0.625 4.375C0.625 4.13827 0.758751 3.92185 0.970491 3.81598L7.22049 0.690983ZM2.64754 4.375L7.5 6.80123L12.3525 4.375L7.5 1.94877L2.64754 4.375Z" fill="black"/>
<path fill-rule="evenodd" clip-rule="evenodd" d="M0.690876 10.3456C0.845244 10.0369 1.22066 9.91175 1.5294 10.0661L7.49989 13.0514L13.4704 10.0661C13.7791 9.91175 14.1545 10.0369 14.3089 10.3456C14.4633 10.6544 14.3381 11.0298 14.0294 11.1842L7.7794 14.3092C7.60345 14.3971 7.39634 14.3971 7.22038 14.3092L0.970384 11.1842C0.661648 11.0298 0.536507 10.6544 0.690876 10.3456Z" fill="black"/>
<path fill-rule="evenodd" clip-rule="evenodd" d="M0.690876 7.22063C0.845244 6.91189 1.22066 6.78675 1.5294 6.94112L7.49989 9.92637L13.4704 6.94112C13.7791 6.78675 14.1545 6.91189 14.3089 7.22063C14.4633 7.52936 14.3381 7.90479 14.0294 8.05915L7.7794 11.1842C7.60345 11.2721 7.39634 11.2721 7.22038 11.1842L0.970384 8.05915C0.661648 7.90479 0.536507 7.52936 0.690876 7.22063Z" fill="black"/>
</g>
<defs>
<clipPath id="clip0_211_4888">
<rect width="15" height="15" fill="white"/>
</clipPath>
</defs>
</svg>
