<svg id="Ebene_1" data-name="Ebene 1" xmlns="http://www.w3.org/2000/svg" viewBox="0 0 25 25"><defs><style>.cls-1{fill:#fff;}</style></defs><circle class="cls-1" cx="15.93" cy="9.07" r="0.49"/><path class="cls-1" d="M12.5,0A12.5,12.5,0,1,0,25,12.5,12.5,12.5,0,0,0,12.5,0Zm5.89,15A3.44,3.44,0,0,1,15,18.39h-4.9A3.44,3.44,0,0,1,6.61,15v-4.9a3.44,3.44,0,0,1,3.44-3.44H15a3.44,3.44,0,0,1,3.44,3.44Z"/><path class="cls-1" d="M12.5,9.56a2.94,2.94,0,1,0,2.94,2.94A2.94,2.94,0,0,0,12.5,9.56Zm0,4.9a2,2,0,1,1,2-2A2,2,0,0,1,12.5,14.46Z"/></svg>